<?xml version="1.0" standalone="no"?>
<!DOCTYPE svg PUBLIC "-//W3C//DTD SVG 1.1//EN" "http://www.w3.org/Graphics/SVG/1.1/DTD/svg11.dtd" >
<svg xmlns="http://www.w3.org/2000/svg">
<metadata>
This is a custom SVG font generated by IcoMoon.
4
</metadata>
<defs>
<font id="icomoon" horiz-adv-x="512" >
<font-face units-per-em="512" ascent="480" descent="-32" />
<missing-glyph horiz-adv-x="512" />
<glyph unicode="&#x21;" d="M 437.856,143.68L 512.00,218.576L 256.00,480.00L0.00,218.576l 74.144-74.88l 27.632,28.224l0.00-158.192 
	C 101.776-9.136, 124.64-32.00, 147.488-32.00c 22.848,0.00, 45.712,22.864, 45.712,45.712l0.00,124.784 l 123.776,0.00 l0.00-124.784 c0.00-22.864, 22.864-45.712, 45.696-45.712
	c 22.88,0.00, 45.712,22.864, 45.712,45.712L 408.384,173.744 L 437.856,143.68z" />
<glyph unicode="&#x22;" d="M 96.00,384.00l 320.00,0.00 l0.00-32.00 L 96.00,352.00 L 96.00,384.00 z M 96.00,288.00l 320.00,0.00 l0.00-32.00 L 96.00,256.00 L 96.00,288.00 z M 96.00,192.00l 160.00,0.00 l0.00-32.00 L 96.00,160.00 L 96.00,192.00 z M 320.00,192.00l 96.00,0.00 l0.00-32.00 l-96.00,0.00 L 320.00,192.00 z M 96.00,96.00l 96.00,0.00 l0.00-32.00 L 96.00,64.00 
	L 96.00,96.00 z M 256.00,96.00l 160.00,0.00 l0.00-32.00 L 256.00,64.00 L 256.00,96.00 z M0.00,416.00l0.00-384.00 c0.00-32.00, 32.00-64.00, 64.00-64.00l 384.00,0.00 c 32.00,0.00, 64.00,32.00, 64.00,64.00L 512.00,416.00 c0.00,32.00-32.00,64.00-64.00,64.00L 64.00,480.00 C 32.00,480.00,0.00,448.00,0.00,416.00z" />
<glyph unicode="&#x23;" d="M 128.00,48.00c0.00-8.00, 8.336-16.00, 16.688-16.00L 480.00,32.00 l0.00,32.00 L 144.688,64.00 C 136.336,64.00, 128.00,56.00, 128.00,48.00z M 32.00,416.00l0.00-384.00 
	c0.00-32.00, 32.00-64.00, 64.00-64.00l 384.00,0.00 l0.00,32.00 L 146.08,0.00 C 121.04,0.00, 96.00,24.00, 96.00,48.00s 25.04,48.00, 50.08,48.00L 480.00,96.00 L 480.00,480.00 L 96.00,480.00 C 64.00,480.00, 32.00,448.00, 32.00,416.00z" />
<glyph unicode="&#x24;" d="M 32.00,96.00l0.00-96.00 l 96.00,0.00 L 32.00,96.00z M 397.712,448.00L 384.00,434.288L 466.288,352.00L 480.00,365.712L 397.712,448.00z M 365.712,416.00
	L 64.00,114.288L 146.288,32.00L 448.00,333.712L 365.712,416.00z" />
<glyph unicode="&#x25;" d="M 160.00,444.464c-32.00,0.00-64.00-32.00-64.00-64.00l0.00-372.816 c0.00-32.00, 19.264-38.432, 38.512-12.896l 118.992,157.856
	l 124.496-168.656C 396.992-41.776, 416.00-35.536, 416.00-3.536l0.00,384.00 c0.00,32.00-32.00,64.00-64.00,64.00L 160.00,444.464 z" />
<glyph unicode="&#x26;" d="M 401.712,11.808c 15.664-15.744, 47.024-15.744, 62.72,0.00l 3.808,3.824
	c 15.664,15.76, 15.664,47.28,0.00,63.04l-146.048,146.784l 64.912,54.368c 34.08,28.544, 25.664,69.888-16.832,82.688L 96.72,445.04
	C 54.24,457.84, 23.04,427.552, 34.336,384.432l 65.728-251.056c 11.296-43.088, 56.64-57.664, 90.704-29.12l 64.928,54.352L 401.712,11.808z" />
<glyph unicode="&#x27;" d="M 419.552,251.296c 0.048,1.312, 0.064,2.608, 0.064,3.92
	c0.00,71.12-56.88,128.784-127.04,128.784c-53.104,0.00-98.608-33.04-117.584-79.968c-11.104,8.528-25.072,13.616-40.256,13.616
	c-36.144,0.00-65.44-28.832-65.44-64.384c0.00-1.76, 0.064-3.504, 0.208-5.232C 29.456,237.216,0.00,200.864,0.00,157.664C0.00,105.92, 42.224,64.00, 94.32,64.00l 1.936,0.00 
	l 319.504,0.00 l 1.936,0.00 C 469.776,64.00, 512.00,105.92, 512.00,157.664C 512.00,208.768, 470.784,250.32, 419.552,251.296z" />
<glyph unicode="&#x28;" d="M 239.52,114.368l0.00,111.664 L 170.176,224.00l 97.664,91.856L 365.504,224.00l-69.344,2.048l0.00-61.488 l0.00-50.192 
	L 239.52,114.368 z M 419.552,251.296c 0.048,1.312, 0.064,2.608, 0.064,3.92c0.00,71.12-56.88,128.784-127.04,128.784c-53.104,0.00-98.608-33.04-117.584-79.968
	c-11.104,8.528-25.072,13.616-40.256,13.616c-36.144,0.00-65.44-28.832-65.44-64.384c0.00-1.76, 0.064-3.504, 0.208-5.232
	C 29.456,237.216,0.00,200.864,0.00,157.664C0.00,105.92, 42.224,64.00, 94.32,64.00l 1.92,0.00 l 319.52,0.00 l 1.936,0.00 C 469.776,64.00, 512.00,105.92, 512.00,157.664
	C 512.00,208.768, 470.784,250.32, 419.552,251.296z" />
<glyph unicode="&#x29;" d="M 239.52,315.856l 56.64,0.00 l0.00-50.208 l0.00-61.472 l 69.344,2.048l-97.664-91.84l-97.664,91.84l 69.344-2.048
	L 239.52,315.856 z M 419.552,251.296c 0.048,1.312, 0.064,2.608, 0.064,3.92c0.00,71.12-56.88,128.784-127.04,128.784c-53.104,0.00-98.608-33.04-117.584-79.968
	c-11.104,8.528-25.072,13.616-40.256,13.616c-36.144,0.00-65.44-28.832-65.44-64.384c0.00-1.76, 0.064-3.504, 0.208-5.232
	C 29.456,237.216,0.00,200.864,0.00,157.664C0.00,105.92, 42.224,64.00, 94.32,64.00l 1.936,0.00 l 319.504,0.00 l 1.936,0.00 C 469.776,64.00, 512.00,105.92, 512.00,157.664
	C 512.00,208.768, 470.784,250.32, 419.552,251.296z" />
<glyph unicode="&#x2a;" d="M 64.48,273.712c0.00,79.104, 65.60,143.248, 146.528,143.248c 80.928,0.00, 146.528-64.144, 146.528-143.248
	c0.00-79.12-65.616-143.264-146.528-143.264C 130.064,130.448, 64.48,194.592, 64.48,273.712z M0.00,273.712c0.00-113.936, 94.464-206.304, 211.008-206.304
	c 33.392,0.00, 64.976,7.584, 93.04,21.088l 105.664-110.576c 12.00-12.56, 36.832-13.36, 49.664-1.60l 42.464,38.912c 12.832,11.76, 13.664,36.096, 1.664,48.656
	l-106.80,111.76c 16.144,29.152, 25.296,62.56, 25.296,98.048C 422.00,387.648, 327.536,480.00, 211.008,480.00C 94.464,480.00,0.00,387.648,0.00,273.712z" />
<glyph unicode="&#x2b;" d="M 248.48,384.00C 242.32,400.384, 233.12,416.00, 224.00,416.00L 64.00,416.00 C 54.88,416.00, 45.664,400.384, 39.52,384.00L 248.48,384.00 z M 32.00,352.00
	c-16.00,0.00-32.00-16.00-32.00-32.00l0.00-256.00 c0.00-32.00, 32.00-64.00, 64.00-64.00l 384.00,0.00 c 32.00,0.00, 64.00,32.00, 64.00,64.00L 512.00,288.00 c0.00,32.00-32.00,64.00-64.00,64.00L 256.00,352.00 L 32.00,352.00 z" />
<glyph unicode="&#x2c;" d="M 128.00,320.00l 64.00,0.00 l0.00-288.00 L 128.00,32.00 L 128.00,320.00 z M 224.00,320.00l 64.00,0.00 l0.00-288.00 l-64.00,0.00 L 224.00,320.00 z M 320.00,320.00l 64.00,0.00 l0.00-288.00 l-64.00,0.00 L 320.00,320.00 z M 32.00,416.00l0.00-64.00 l 32.00,0.00 l0.00-320.00 c0.00-32.00, 32.00-64.00, 64.00-64.00
	l 256.00,0.00 c 32.00,0.00, 64.00,32.00, 64.00,64.00L 448.00,352.00 l 32.00,0.00 L 480.00,416.00 l-128.00,0.00 L 352.00,480.00 L 160.00,480.00 l0.00-64.00 L 32.00,416.00 z" />
<glyph unicode="&#x2d;" d="M 64.00,172.80C 64.00,285.904, 256.00,480.00, 256.00,480.00s 192.00-194.096, 192.00-307.20S 362.032-32.00, 256.00-32.00
	C 149.968-32.00, 64.00,59.68, 64.00,172.80z" />
<glyph unicode="&#x2e;" d="M 319.168,340.352c0.00,29.376, 23.808,53.20, 53.184,53.20c 29.392,0.00, 53.20-23.824, 53.20-53.20
	s-23.808-53.184-53.20-53.184C 342.992,287.168, 319.168,310.992, 319.168,340.352z M0.00,145.312L 177.312-32.00l 301.44,301.44
	c 44.336,44.336, 44.336,132.992,0.00,177.312s-132.992,44.336-177.312,0.00L0.00,145.312z" />
<glyph unicode="&#x2f;" d="M0.00,116.432C 44.624,28.368, 135.984-32.00, 241.456-32.00C 390.88-32.00, 512.00,89.12, 512.00,238.544
	C 512.00,344.016, 451.632,435.376, 363.568,480.00c 18.592-36.688, 29.072-78.16, 29.072-122.096c0.00-149.408-121.104-270.56-270.544-270.56
	C 78.16,87.344, 36.688,97.84,0.00,116.432z" />
<glyph unicode="&#x30;" d="M 146.288,224.00c0.00,58.912, 49.12,106.672, 109.712,106.672s 109.712-47.76, 109.712-106.672
	s-49.12-106.672-109.712-106.672S 146.288,165.088, 146.288,224.00z M0.00,220.16C 47.408,127.424, 143.392,64.00, 254.112,64.00C 367.84,64.00, 466.064,130.96, 512.00,227.84
	C 464.592,320.576, 368.592,384.00, 257.888,384.00C 144.16,384.00, 45.952,317.04,0.00,220.16z M 201.136,224.00c0.00-29.456, 24.56-53.328, 54.864-53.328s 54.864,23.872, 54.864,53.328
	S 286.304,277.328, 256.00,277.328S 201.136,253.456, 201.136,224.00z" />
<glyph unicode="&#x31;" d="M 66.72,256.00C 80.208,336.40, 143.616,399.792, 224.00,413.28L 224.00,320.00 l 64.00,0.00 L 288.00,413.28 
	c 80.384-13.488, 143.792-76.88, 157.28-157.28L 352.00,256.00 l0.00-64.00 l 93.28,0.00 c-13.488-80.40-76.896-143.792-157.28-157.28L 288.00,128.00 l-64.00,0.00 l0.00-93.28 C 143.616,48.208, 80.208,111.60, 66.72,192.00L 160.00,192.00 
	l0.00,64.00 L 66.72,256.00 z M0.00,224.00c0.00-141.392, 114.608-256.00, 256.00-256.00s 256.00,114.608, 256.00,256.00S 397.392,480.00, 256.00,480.00S0.00,365.392,0.00,224.00z" />
<glyph unicode="&#x32;" d="M 416.656,351.024C 444.32,316.112, 460.80,271.984, 460.80,224.00c0.00-113.104-91.68-204.80-204.80-204.80
	c-46.864,0.00-90.048,15.728-124.576,42.208L 416.656,351.024z M 51.20,224.00C 51.20,337.104, 142.896,428.80, 256.00,428.80c 46.864,0.00, 90.032-15.728, 124.544-42.208L 95.328,96.976
	C 67.696,131.872, 51.20,176.016, 51.20,224.00z M0.00,224.00c0.00-141.392, 114.608-256.00, 256.00-256.00s 256.00,114.608, 256.00,256.00S 397.392,480.00, 256.00,480.00S0.00,365.392,0.00,224.00z" />
<glyph unicode="&#x33;" d="M 224.00,448.00l0.00-224.00 l 64.00,0.00 L 288.00,448.00 L 224.00,448.00 z M 32.00,192.00c0.00-123.712, 100.288-224.00, 224.00-224.00c 123.712,0.00, 224.00,100.288, 224.00,224.00
	c0.00,101.472-67.472,187.184-160.00,214.72l0.00-68.00 c 56.496-24.688, 96.00-81.104, 96.00-146.72c0.00-88.368-71.632-160.00-160.00-160.00c-88.368,0.00-160.00,71.632-160.00,160.00
	c0.00,65.616, 39.488,122.032, 96.00,146.72L 192.00,406.72 C 99.472,379.184, 32.00,293.472, 32.00,192.00z" />
<glyph unicode="&#x34;" d="M 64.00,224.00C 64.00,330.032, 149.968,416.00, 256.00,416.00c 106.032,0.00, 192.00-85.968, 192.00-192.00c0.00-106.032-85.968-192.00-192.00-192.00
	C 149.968,32.00, 64.00,117.968, 64.00,224.00z M0.00,224.00c0.00-141.392, 114.608-256.00, 256.00-256.00s 256.00,114.608, 256.00,256.00S 397.392,480.00, 256.00,480.00S0.00,365.392,0.00,224.00z M 192.00,224.00c0.00,35.344, 28.656,64.00, 64.00,64.00
	c 35.344,0.00, 64.00-28.656, 64.00-64.00s-28.656-64.00-64.00-64.00C 220.656,160.00, 192.00,188.656, 192.00,224.00z M 128.00,224.00c0.00-70.688, 57.312-128.00, 128.00-128.00c 70.688,0.00, 128.00,57.312, 128.00,128.00s-57.312,128.00-128.00,128.00
	C 185.312,352.00, 128.00,294.688, 128.00,224.00z" />
<glyph unicode="&#x35;" d="M 158.784,296.80c0.00,51.888, 43.52,93.952, 97.216,93.952s 97.216-42.064, 97.216-93.952
	c0.00-51.872-43.536-93.936-97.216-93.936S 158.784,244.928, 158.784,296.80z M 64.00,294.464C 64.00,191.984, 256.00-32.00, 256.00-32.00s 192.00,223.984, 192.00,326.464
	C 448.00,396.928, 362.032,480.00, 256.00,480.00C 149.968,480.00, 64.00,396.928, 64.00,294.464z" />
<glyph unicode="&#x36;" d="M 80.00,400.00c-22.00-22.00-22.00-66.00,0.00-88.00l 88.00-88.00L 80.00,136.00
	c-22.00-22.00-22.00-66.00,0.00-88.00s 66.00-22.00, 88.00,0.00l 88.00,88.00l 88.00-88.00c 22.00-22.00, 66.00-22.00, 88.00,0.00s 22.00,66.00,0.00,88.00L 344.00,224.00
	l 88.00,88.00c 22.00,22.00, 22.00,66.00,0.00,88.00s-66.00,22.00-88.00,0.00L 256.00,312.00L 168.00,400.00C 146.00,422.00, 102.00,422.00, 80.00,400.00z" />
<glyph unicode="&#x37;" d="M 448.00,432.00L 196.64,203.36L 96.00,304.00L0.00,208.00L 192.00,16.00L 512.00,368.00 z" />
<glyph unicode="&#x3b;" d="M 192.00,32.00c0.00-35.344, 28.656-64.00, 64.00-64.00c 35.344,0.00, 64.00,28.656, 64.00,64.00s-28.656,64.00-64.00,64.00
	C 220.656,96.00, 192.00,67.344, 192.00,32.00z M 192.00,416.00c0.00-35.344, 28.656-64.00, 64.00-64.00c 35.344,0.00, 64.00,28.656, 64.00,64.00c0.00,35.344-28.656,64.00-64.00,64.00C 220.656,480.00, 192.00,451.344, 192.00,416.00z M0.00,224.00
	c0.00-32.00, 32.00-64.00, 64.00-64.00l 384.00,0.00 c 32.00,0.00, 64.00,32.00, 64.00,64.00s-32.00,64.00-64.00,64.00L 64.00,288.00 C 32.00,288.00,0.00,256.00,0.00,224.00z" />
<glyph unicode="&#x3c;" d="M0.00,224.00c0.00,32.00, 32.00,64.00, 64.00,64.00l 384.00,0.00 c 32.00,0.00, 64.00-32.00, 64.00-64.00s-32.00-64.00-64.00-64.00L 64.00,160.00 C 32.00,160.00,0.00,192.00,0.00,224.00z" />
<glyph unicode="&#x3d;" d="M 256.00,480.00c-32.00,0.00-64.00-32.00-64.00-64.00l0.00-128.00 L 64.00,288.00 c-32.00,0.00-64.00-32.00-64.00-64.00s 32.00-64.00, 64.00-64.00l 128.00,0.00 l0.00-128.00 c0.00-32.00, 32.00-64.00, 64.00-64.00s 64.00,32.00, 64.00,64.00l0.00,128.00 l 128.00,0.00 
	c 32.00,0.00, 64.00,32.00, 64.00,64.00s-32.00,64.00-64.00,64.00l-128.00,0.00 L 320.00,416.00 C 320.00,448.00, 288.00,480.00, 256.00,480.00z" />
<glyph unicode="&#x3e;" d="M0.00,96.00c0.00-32.00, 32.00-64.00, 64.00-64.00l 384.00,0.00 c 32.00,0.00, 64.00,32.00, 64.00,64.00s-32.00,64.00-64.00,64.00L 64.00,160.00 C 32.00,160.00,0.00,128.00,0.00,96.00z M0.00,352.00c0.00-32.00, 32.00-64.00, 64.00-64.00l 384.00,0.00 
	c 32.00,0.00, 64.00,32.00, 64.00,64.00s-32.00,64.00-64.00,64.00L 64.00,416.00 C 32.00,416.00,0.00,384.00,0.00,352.00z" />
<glyph unicode="&#x43;" d="M 195.296,464.00l 21.664-195.504L 18.512,323.776L0.00,212.72l 188.992-14.784l-121.92-159.152L 175.248-16.00
	l 78.656,172.944L 341.536-16.00l 105.024,54.784l-124.56,159.152L 512.00,212.72l-14.752,111.056l-203.248-55.28L 315.68,464.00L 195.296,464.00 L 195.296,464.00z" />
<glyph unicode="&#x44;" d="M 192.00,448.00l 96.00,0.00 l0.00-32.00 l-96.00,0.00 L 192.00,448.00 z M 128.00,384.00l 224.00,0.00 l0.00-320.00 L 128.00,64.00 L 128.00,384.00 z M 224.00,32.00l 32.00,0.00 l0.00-32.00 l-32.00,0.00 L 224.00,32.00 z M 128.00,480.00C 112.00,480.00, 96.00,464.00, 96.00,448.00l0.00-448.00 
	c0.00-16.00, 16.00-32.00, 32.00-32.00l 224.00,0.00 c 16.00,0.00, 32.00,16.00, 32.00,32.00L 384.00,448.00 c0.00,16.00-16.00,32.00-32.00,32.00L 128.00,480.00 z" />
<glyph unicode="&#x45;" d="M 32.00,448.00l 416.00,0.00 l0.00-384.00 L 32.00,64.00 L 32.00,448.00 z M 224.00,32.00l 32.00,0.00 l0.00-32.00 l-32.00,0.00 L 224.00,32.00 z M0.00,32.00c0.00-32.00, 32.00-64.00, 64.00-64.00l 352.00,0.00 c 32.00,0.00, 64.00,32.00, 64.00,64.00L 480.00,416.00 
	c0.00,32.00-32.00,64.00-64.00,64.00L 64.00,480.00 C 32.00,480.00,0.00,448.00,0.00,416.00L0.00,32.00 z" />
<glyph unicode="&#x46;" d="M 352.00,416.00L 160.00,416.00 L 160.00,448.00 c0.00,16.00-16.00,32.00-32.00,32.00S 96.00,464.00, 96.00,448.00l0.00-416.00 c0.00-32.00, 32.00-64.00, 64.00-64.00l 192.00,0.00 c 32.00,0.00, 64.00,32.00, 64.00,64.00L 416.00,352.00 C 416.00,384.00, 384.00,416.00, 352.00,416.00z
	 M 192.00,0.00L 128.00,0.00 l0.00,64.00 l 64.00,0.00 L 192.00,0.00 z M 192.00,96.00L 128.00,96.00 l0.00,64.00 l 64.00,0.00 L 192.00,96.00 z M 192.00,192.00L 128.00,192.00 l0.00,64.00 l 64.00,0.00 L 192.00,192.00 z M 288.00,0.00l-64.00,0.00 l0.00,64.00 l 64.00,0.00 L 288.00,0.00 z M 288.00,96.00l-64.00,0.00 l0.00,64.00 l 64.00,0.00 L 288.00,96.00 z M 288.00,192.00l-64.00,0.00 l0.00,64.00 l 64.00,0.00 L 288.00,192.00 z M 384.00,0.00l-64.00,0.00 l0.00,64.00 l 64.00,0.00 
	L 384.00,0.00 z M 384.00,96.00l-64.00,0.00 l0.00,64.00 l 64.00,0.00 L 384.00,96.00 z M 384.00,192.00l-64.00,0.00 l0.00,64.00 l 64.00,0.00 L 384.00,192.00 z M 384.00,288.00L 128.00,288.00 L 128.00,384.00 l 32.00,0.00 l 224.00,0.00 L 384.00,288.00 z" />
<glyph unicode="&#x47;" d="M 416.00,480.00l0.00-512.00 l 64.00,0.00 L 480.00,480.00 L 416.00,480.00 z M 320.00,384.00l0.00-416.00 l 64.00,0.00 L 384.00,384.00 L 320.00,384.00 z M 224.00,288.00l0.00-320.00 l 64.00,0.00 L 288.00,288.00 L 224.00,288.00 z M 128.00,192.00l0.00-224.00 l 64.00,0.00 L 192.00,192.00 L 128.00,192.00 z M 32.00,96.00l0.00-128.00 l 64.00,0.00 
	l0.00,128.00 L 32.00,96.00 z" />
<glyph unicode="&#x48;" d="M 128.00,224.00l0.00-64.00 l 256.00,0.00 l0.00,64.00 L 128.00,224.00 z M 64.00,352.00l0.00-64.00 l 384.00,0.00 L 448.00,352.00 L 64.00,352.00 z M0.00,480.00l0.00-64.00 l 512.00,0.00 L 512.00,480.00 L0.00,480.00 z M 192.00,32.00c0.00-35.344, 28.656-64.00, 64.00-64.00
	c 35.344,0.00, 64.00,28.656, 64.00,64.00s-28.656,64.00-64.00,64.00C 220.656,96.00, 192.00,67.344, 192.00,32.00z" />
<glyph unicode="&#x49;" d="M 32.00,352.00l 416.00,0.00 l0.00-64.00 l0.00-128.00 l0.00-64.00 L 32.00,96.00 L 32.00,352.00 z M 64.00,384.00c-32.00,0.00-64.00-32.00-64.00-64.00l0.00-192.00 c0.00-32.00, 32.00-64.00, 64.00-64.00l 352.00,0.00 c 32.00,0.00, 64.00,32.00, 64.00,64.00l0.00,32.00 l 32.00,0.00 l0.00,128.00 l-32.00,0.00 
	l0.00,32.00 c0.00,32.00-32.00,64.00-64.00,64.00L 64.00,384.00 z M 64.00,320.00l0.00-192.00 l 352.00,0.00 L 64.00,320.00z" />
<glyph unicode="&#x4a;" d="M 192.00,128.00c 16.00,0.00, 32.00,16.00, 32.00,32.00l0.00,128.00 c0.00,16.00-16.00,32.00-32.00,32.00s-32.00-16.00-32.00-32.00l0.00-128.00 C 160.00,144.00, 176.00,128.00, 192.00,128.00zM 96.00,128.00c 16.00,0.00, 32.00,16.00, 32.00,32.00l0.00,128.00 c0.00,16.00-16.00,32.00-32.00,32.00s-32.00-16.00-32.00-32.00l0.00-128.00 C 64.00,144.00, 80.00,128.00, 96.00,128.00zM 480.00,288.00l0.00,32.00 c0.00,32.00-32.00,64.00-64.00,64.00L 64.00,384.00 c-32.00,0.00-64.00-32.00-64.00-64.00l0.00-192.00 c0.00-32.00, 32.00-64.00, 64.00-64.00l 352.00,0.00 c 32.00,0.00, 64.00,32.00, 64.00,64.00l0.00,32.00 l 32.00,0.00 l0.00,128.00 L 480.00,288.00 z M 448.00,96.00L 32.00,96.00 L 32.00,352.00 l 416.00,0.00 L 448.00,96.00 z" />
<glyph unicode="&#x4b;" d="M 32.00,352.00l 416.00,0.00 l0.00-256.00 L 32.00,96.00 L 32.00,352.00 z M 64.00,384.00c-32.00,0.00-64.00-32.00-64.00-64.00l0.00-192.00 c0.00-32.00, 32.00-64.00, 64.00-64.00l 352.00,0.00 c 32.00,0.00, 64.00,32.00, 64.00,64.00l0.00,32.00 l 32.00,0.00 l0.00,128.00 l-32.00,0.00 l0.00,32.00 
	c0.00,32.00-32.00,64.00-64.00,64.00L 64.00,384.00 z M 64.00,320.00l0.00-192.00 l 352.00,0.00 L 416.00,320.00 L 64.00,320.00 z" />
<glyph unicode="&#x4c;" d="M 96.00,352.00c0.00,32.00, 32.00,64.00, 64.00,64.00l 192.00,0.00 c 32.00,0.00, 64.00-32.00, 64.00-64.00s-32.00-64.00-64.00-64.00L 160.00,288.00 C 128.00,288.00, 96.00,320.00, 96.00,352.00z M 96.00,224.00l 64.00,0.00 l0.00-64.00 L 96.00,160.00 L 96.00,224.00 z
	 M 224.00,224.00l 64.00,0.00 l0.00-64.00 l-64.00,0.00 L 224.00,224.00 z M 352.00,224.00l 64.00,0.00 l0.00-64.00 l-64.00,0.00 L 352.00,224.00 z M 352.00,96.00l 64.00,0.00 l0.00-64.00 l-64.00,0.00 L 352.00,96.00 z M 224.00,96.00l 64.00,0.00 l0.00-64.00 l-64.00,0.00 L 224.00,96.00 z M 96.00,96.00l 64.00,0.00 l0.00-64.00 L 96.00,32.00 L 96.00,96.00 z M 32.00,416.00l0.00-384.00 c0.00-32.00, 32.00-64.00, 64.00-64.00l 320.00,0.00 c 32.00,0.00, 64.00,32.00, 64.00,64.00L 480.00,416.00 
	c0.00,32.00-32.00,64.00-64.00,64.00L 96.00,480.00 C 64.00,480.00, 32.00,448.00, 32.00,416.00z" />
<glyph unicode="&#x4d;" d="M 384.00,480.00L 128.00,257.60l 138.656-74.144L 128.00-32.00l 256.00,222.40l-106.656,74.144L 384.00,480.00z" />
<glyph unicode="&#x4e;" d="M 256.00,32.00l0.00-64.00 l 352.00,0.00 l0.00,64.00 L 256.00,32.00 z M 256.00,160.00l0.00-64.00 l 352.00,0.00 l0.00,64.00 L 256.00,160.00 z M 256.00,352.00l0.00-64.00 l 352.00,0.00 L 608.00,352.00 L 256.00,352.00 z M 256.00,480.00l0.00-64.00 l 352.00,0.00 L 608.00,480.00 L 256.00,480.00 z M0.00,160.00
	l0.00-192.00 l 192.00,0.00 L 192.00,160.00 L0.00,160.00 z M0.00,480.00l0.00-192.00 l 192.00,0.00 L 192.00,480.00 L0.00,480.00 z" horiz-adv-x="608" />
<glyph unicode="&#x4f;" d="M 384.00,64.00l0.00-96.00 l 96.00,0.00 l0.00,96.00 L 384.00,64.00 z M 192.00,64.00l0.00-96.00 l 96.00,0.00 l0.00,96.00 L 192.00,64.00 z M0.00,64.00l0.00-96.00 l 96.00,0.00 l0.00,96.00 L0.00,64.00 z M 384.00,256.00l0.00-96.00 l 96.00,0.00 l0.00,96.00 L 384.00,256.00 z M 192.00,256.00l0.00-96.00 
	l 96.00,0.00 l0.00,96.00 L 192.00,256.00 z M0.00,256.00l0.00-96.00 l 96.00,0.00 l0.00,96.00 L0.00,256.00 z M 384.00,448.00l0.00-96.00 l 96.00,0.00 L 480.00,448.00 L 384.00,448.00 z M 192.00,448.00l0.00-96.00 l 96.00,0.00 L 288.00,448.00 L 192.00,448.00 z M0.00,448.00l0.00-96.00 l 96.00,0.00 L 96.00,448.00 L0.00,448.00 z" />
<glyph unicode="&#x50;" d="M0.00,256.00l0.00-96.00 l 512.00,0.00 l0.00,96.00 L0.00,256.00 z M0.00,64.00l0.00-96.00 l 512.00,0.00 l0.00,96.00 L0.00,64.00 z M0.00,448.00l0.00-96.00 l 512.00,0.00 L 512.00,448.00 L0.00,448.00 z" />
<glyph unicode="&#x51;" d="M0.00,64.00l0.00-96.00 l 96.00,0.00 l0.00,96.00 L0.00,64.00 z M0.00,256.00l0.00-96.00 l 96.00,0.00 l0.00,96.00 L0.00,256.00 z M0.00,448.00l0.00-96.00 l 96.00,0.00 L 96.00,448.00 L0.00,448.00 z M 160.00,256.00l0.00-96.00 l 352.00,0.00 l0.00,96.00 L 160.00,256.00 z M 160.00,64.00l0.00-96.00 l 352.00,0.00 l0.00,96.00 
	L 160.00,64.00 z M 160.00,448.00l0.00-96.00 l 352.00,0.00 L 512.00,448.00 L 160.00,448.00 z" />
<glyph unicode="&#x52;" d="M 192.00,288.00l0.00-320.00 l 320.00,0.00 L 512.00,288.00 L 192.00,288.00 z M 192.00,480.00l0.00-128.00 l 320.00,0.00 L 512.00,480.00 L 192.00,480.00 z M0.00,480.00l0.00-512.00 l 128.00,0.00 L 128.00,480.00 L0.00,480.00 z" />
<glyph unicode="&#x55;" d="M 182.864,224.00c0.00,40.384, 32.736,73.136, 73.136,73.136c 40.40,0.00, 73.136-32.752, 73.136-73.136
	c0.00-40.40-32.736-73.136-73.136-73.136C 215.60,150.864, 182.864,183.60, 182.864,224.00z M 310.864,443.424C 310.864,461.712, 292.56,480.00, 274.288,480.00l-36.56,0.00 
	c-18.288,0.00-36.576-18.288-36.576-36.576l0.00-51.20 c0.00-18.288-12.928-23.648-25.856-10.704L 139.232,417.568c-12.928,12.944-38.80,12.944-51.712,0.00L 62.432,392.48
	c-12.928-12.928-12.928-38.784,0.00-51.712l 36.048-36.048c 12.928-12.928, 7.568-25.856-10.704-25.856l-51.20,0.00 C 18.288,278.864,0.00,260.576,0.00,242.288l0.00-36.56 
	c0.00-18.288, 18.288-36.576, 36.576-36.576l 51.20,0.00 c 18.288,0.00, 23.648-12.928, 10.704-25.856l-36.048-36.048c-12.928-12.944-12.928-38.80,0.00-51.728l 25.088-25.056
	c 12.928-12.944, 38.784-12.944, 51.712,0.00l 36.048,36.048c 12.928,12.928, 25.856,7.584, 25.856-10.704l0.00-51.216 c0.00-18.288, 18.288-36.56, 36.576-36.56l 36.56,0.00 
	c 18.288,0.00, 36.576,18.288, 36.576,36.56l0.00,51.216 c0.00,18.288, 12.928,23.632, 25.856,10.704l 36.048-36.048c 12.928-12.944, 38.80-12.944, 51.712,0.00l 25.072,25.056
	c 12.944,12.944, 12.944,38.80,0.00,51.728l-36.048,36.048c-12.928,12.944-7.584,25.856, 10.704,25.856l 51.216,0.00 c 18.288,0.00, 36.56,18.304, 36.56,36.576l0.00,36.56 
	c0.00,18.288-18.288,36.576-36.56,36.576l-51.216,0.00 c-18.288,0.00-23.632,12.928-10.704,25.856l 36.048,36.048c 12.944,12.928, 12.944,38.784,0.00,51.712
	L 424.48,417.568c-12.928,12.944-38.80,12.944-51.712,0.00l-36.048-36.048c-12.944-12.928-25.856-7.584-25.856,10.704L 310.864,443.424 z" />
<glyph unicode="&#x56;" d="M 64.00,448.00l 32.00,0.00 l0.00-32.00 L 64.00,416.00 L 64.00,448.00 z M 128.00,448.00l 32.00,0.00 l0.00-32.00 L 128.00,416.00 L 128.00,448.00 z M 192.00,448.00l 256.00,0.00 l0.00-32.00 L 192.00,416.00 L 192.00,448.00 z M 480.00,384.00l0.00-328.00 c0.00-28.00-28.00-56.00-56.00-56.00
	l-336.00,0.00 C 60.00,0.00, 32.00,28.00, 32.00,56.00L 32.00,384.00 L 480.00,384.00 z M0.00,416.00l0.00-384.00 c0.00-32.00, 32.00-64.00, 64.00-64.00l 384.00,0.00 c 32.00,0.00, 64.00,32.00, 64.00,64.00L 512.00,416.00 c0.00,32.00-32.00,64.00-64.00,64.00L 64.00,480.00 C 32.00,480.00,0.00,448.00,0.00,416.00z M 64.00,352.00l0.00-256.00 c0.00-32.00, 32.00-64.00, 64.00-64.00l 256.00,0.00 
	c 32.00,0.00, 64.00,32.00, 64.00,64.00L 448.00,352.00 L 64.00,352.00 z" />
<glyph unicode="&#x57;" d="M 64.00,448.00l 32.00,0.00 l0.00-32.00 L 64.00,416.00 L 64.00,448.00 z M 128.00,448.00l 32.00,0.00 l0.00-32.00 L 128.00,416.00 L 128.00,448.00 z M 192.00,448.00l 256.00,0.00 l0.00-32.00 L 192.00,416.00 L 192.00,448.00 z M 480.00,384.00l0.00-328.00 c0.00-28.00-28.00-56.00-56.00-56.00
	l-336.00,0.00 C 60.00,0.00, 32.00,28.00, 32.00,56.00L 32.00,384.00 L 480.00,384.00 z M0.00,416.00l0.00-384.00 c0.00-32.00, 32.00-64.00, 64.00-64.00l 384.00,0.00 c 32.00,0.00, 64.00,32.00, 64.00,64.00L 512.00,416.00 c0.00,32.00-32.00,64.00-64.00,64.00L 64.00,480.00 C 32.00,480.00,0.00,448.00,0.00,416.00z M 136.00,264.00L 208.00,192.00l-72.00-72.00l 48.00-48.00
	L 256.00,144.00l 72.00-72.00l 48.00,48.00L 304.00,192.00l 72.00,72.00l-48.00,48.00L 256.00,240.00l-72.00,72.00L 136.00,264.00z" />
<glyph unicode="&#x58;" d="M 64.00,448.00l 32.00,0.00 l0.00-32.00 L 64.00,416.00 L 64.00,448.00 z M 128.00,448.00l 32.00,0.00 l0.00-32.00 L 128.00,416.00 L 128.00,448.00 z M 192.00,448.00l 256.00,0.00 l0.00-32.00 L 192.00,416.00 L 192.00,448.00 z M 36.48,36.16
	C 33.616,42.528, 32.00,49.248, 32.00,56.00L 32.00,384.00 l 384.00,0.00 L 36.48,36.16z M 480.00,354.256L 480.00,56.00 c0.00-28.00-28.00-56.00-56.00-56.00L 98.40,0.00 L 480.00,354.256z M0.00,416.00l0.00-384.00 c0.00-32.00, 32.00-64.00, 64.00-64.00l 384.00,0.00 
	c 32.00,0.00, 64.00,32.00, 64.00,64.00L 512.00,384.00 L 512.00,416.00 c0.00,32.00-32.00,64.00-64.00,64.00L 64.00,480.00 C 32.00,480.00,0.00,448.00,0.00,416.00z" />
<glyph unicode="&#x59;" d="M 64.00,448.00l 32.00,0.00 l0.00-32.00 L 64.00,416.00 L 64.00,448.00 z M 128.00,448.00l 32.00,0.00 l0.00-32.00 L 128.00,416.00 L 128.00,448.00 z M 192.00,448.00l 256.00,0.00 l0.00-32.00 L 192.00,416.00 L 192.00,448.00 z M 480.00,384.00l0.00-328.00 c0.00-28.00-28.00-56.00-56.00-56.00
	l-336.00,0.00 C 60.00,0.00, 32.00,28.00, 32.00,56.00L 32.00,384.00 L 480.00,384.00 z M0.00,416.00l0.00-384.00 c0.00-32.00, 32.00-64.00, 64.00-64.00l 384.00,0.00 c 32.00,0.00, 64.00,32.00, 64.00,64.00L 512.00,416.00 c0.00,32.00-32.00,64.00-64.00,64.00L 64.00,480.00 C 32.00,480.00,0.00,448.00,0.00,416.00z" />
<glyph unicode="&#x5a;" d="M 224.00,160.00c0.00,16.00, 16.00,32.00, 32.00,32.00s 32.00-16.00, 32.00-32.00l0.00-64.00 c0.00-16.00-16.00-32.00-32.00-32.00s-32.00,16.00-32.00,32.00L 224.00,160.00 z M 384.00,288.00L 128.00,288.00 L 128.00,362.656 
	C 128.00,405.328, 170.672,416.00, 213.328,416.00l 85.328,0.00 C 341.328,416.00, 384.00,405.328, 384.00,362.656L 384.00,288.00 z M 32.00,224.00l0.00-192.00 c0.00-32.00, 32.00-64.00, 64.00-64.00l 320.00,0.00 c 32.00,0.00, 64.00,32.00, 64.00,64.00L 480.00,224.00 
	c0.00,20.896-13.632,41.776-32.00,53.744L 448.00,352.00 c0.00,64.00-64.00,128.00-128.00,128.00l-128.00,0.00 C 128.00,480.00, 64.00,416.00, 64.00,352.00l0.00-74.256 C 45.632,265.776, 32.00,244.896, 32.00,224.00z" />
<glyph unicode="&#x5b;" d="M 448.00,277.744L 448.00,352.00 c0.00,64.00-64.00,128.00-128.00,128.00l-128.00,0.00 C 138.768,480.00, 85.52,435.712, 69.12,384.00l 63.36,0.00 
	c 12.032,25.056, 46.448,32.00, 80.864,32.00l 85.328,0.00 C 341.344,416.00, 384.00,405.328, 384.00,362.656L 384.00,288.00 L 64.00,288.00 l0.00-10.256 C 45.632,265.776, 32.00,244.896, 32.00,224.00l0.00-192.00 c0.00-32.00, 32.00-64.00, 64.00-64.00l 320.00,0.00 
	c 32.00,0.00, 64.00,32.00, 64.00,64.00L 480.00,224.00 C 480.00,244.896, 466.368,265.776, 448.00,277.744z M 288.00,96.00c0.00-16.00-16.00-32.00-32.00-32.00s-32.00,16.00-32.00,32.00l0.00,64.00 c0.00,16.00, 16.00,32.00, 32.00,32.00s 32.00-16.00, 32.00-32.00L 288.00,96.00 z" />
<glyph unicode="&#x5c;" d="M0.00,480.00l0.00-192.00 c0.00-128.00, 128.00-320.00, 256.00-320.00s 256.00,192.00, 256.00,320.00L 512.00,480.00 l-37.44,0.00 C 461.376,442.72, 425.808,416.00, 384.00,416.00
	c-41.792,0.00-77.376,26.72-90.56,64.00l-74.88,0.00 C 205.376,442.72, 169.808,416.00, 128.00,416.00S 50.624,442.72, 37.44,480.00L0.00,480.00 z" />
<glyph unicode="&#x5d;" d="M 384.00,80.00c0.00-26.496, 21.504-48.00, 48.00-48.00s 48.00,21.504, 48.00,48.00s-21.504,48.00-48.00,48.00S 384.00,106.496, 384.00,80.00z M 160.00,80.00
	c0.00-26.496, 21.488-48.00, 48.00-48.00c 26.496,0.00, 48.00,21.504, 48.00,48.00s-21.504,48.00-48.00,48.00C 181.488,128.00, 160.00,106.496, 160.00,80.00z M 143.20,312.976L 176.00,160.00l 288.00,0.00 l 48.00,224.00L 128.00,384.00 L0.00,416.00l0.00-32.00 L 143.20,312.976
	z" />
<glyph unicode="&#x5e;" d="M 384.00,96.00c0.00,17.664, 14.336,32.00, 32.00,32.00s 32.00-14.336, 32.00-32.00s-14.336-32.00-32.00-32.00S 384.00,78.336, 384.00,96.00z M 288.00,96.00
	c0.00,17.664, 14.336,32.00, 32.00,32.00s 32.00-14.336, 32.00-32.00s-14.336-32.00-32.00-32.00S 288.00,78.336, 288.00,96.00z M 192.00,96.00c0.00,17.664, 14.336,32.00, 32.00,32.00s 32.00-14.336, 32.00-32.00s-14.336-32.00-32.00-32.00
	S 192.00,78.336, 192.00,96.00z M 32.00,384.00l 448.00,0.00 l0.00-96.00 L 32.00,288.00 L 32.00,384.00 z M0.00,352.00l0.00-288.00 c0.00-32.00, 32.00-64.00, 64.00-64.00l 384.00,0.00 c 32.00,0.00, 64.00,32.00, 64.00,64.00L 512.00,352.00 c0.00,32.00-32.00,64.00-64.00,64.00L 64.00,416.00 C 32.00,416.00,0.00,384.00,0.00,352.00z" />
<glyph unicode="&#x5f;" d="M 128.00,416.00l 64.00,0.00 l0.00-64.00 L 128.00,352.00 L 128.00,416.00 z M 224.00,416.00l 64.00,0.00 l0.00-64.00 l-64.00,0.00 L 224.00,416.00 z M 320.00,416.00l 64.00,0.00 l0.00-64.00 l-64.00,0.00 L 320.00,416.00 z M 128.00,320.00l 64.00,0.00 l0.00-64.00 L 128.00,256.00 L 128.00,320.00 z M 224.00,320.00l 64.00,0.00 l0.00-64.00 l-64.00,0.00 L 224.00,320.00 z
	 M 128.00,224.00l 64.00,0.00 l0.00-64.00 L 128.00,160.00 L 128.00,224.00 z M 320.00,320.00l 64.00,0.00 l0.00-64.00 l-64.00,0.00 L 320.00,320.00 z M 224.00,224.00l 64.00,0.00 l0.00-64.00 l-64.00,0.00 L 224.00,224.00 z M 320.00,224.00l 64.00,0.00 l0.00-64.00 l-64.00,0.00 L 320.00,224.00 z M 64.00,480.00l0.00-512.00 l 128.00,0.00 l0.00,128.00 l 128.00,0.00 l0.00-128.00 l 128.00,0.00 L 448.00,480.00 L 64.00,480.00 z" />
<glyph unicode="&#x60;" d="M 416.00,320.00c0.00,88.352-71.632,160.00-160.00,160.00C 167.632,480.00, 96.00,408.352, 96.00,320.00l 32.00,0.00 c0.00,70.704, 57.312,128.00, 128.00,128.00
	c 70.688,0.00, 128.00-57.296, 128.00-128.00L 416.00,320.00 z M 96.00,288.00L 32.00-32.00l 448.00,0.00 l-64.00,320.00L 96.00,288.00 z" />
<glyph unicode="&#x61;" d="M 320.00,384.00l-128.00,0.00 L 192.00,416.00 l 128.00,0.00 L 320.00,384.00 z M 96.00-32.00l 320.00,0.00 L 416.00,384.00 l-64.00,0.00 L 352.00,448.00 L 160.00,448.00 l0.00-64.00 L 96.00,384.00 L 96.00-32.00 z M 448.00-32.00c 32.00,0.00, 64.00,32.00, 64.00,64.00L 512.00,320.00 c0.00,32.00-32.00,64.00-64.00,64.00L 448.00-32.00 
	z M0.00,320.00l0.00-288.00 c0.00-32.00, 32.00-64.00, 64.00-64.00L 64.00,384.00 C 32.00,384.00,0.00,352.00,0.00,320.00z" />
<glyph unicode="&#x62;" d="M 169.52,173.744L 136.48,140.352L 47.424,140.352 c-6.656,0.00-9.168-5.216-5.024-10.432l 119.936-151.488
	c 4.128-5.216, 10.272-4.08, 12.256,2.288l 26.576,84.80l 20.40,22.928l 85.536,86.40l 28.688-173.952C 338.496-15.568, 357.84-32.00, 374.464-32.00l 34.976,0.00 
	L 409.44,278.272 l 102.336,103.60L 512.00,414.752c 0.112,16.656-16.40,33.28-33.024,33.248l-39.024-0.096L 307.088,347.20L0.00,347.20 l0.00-35.60 c0.00-16.672, 16.464-35.712, 32.928-38.112
	l 205.92-29.696L 169.52,173.744" />
<glyph unicode="&#x63;" d="M 281.60,480.00l-208.00,0.00 C 52.80,480.00, 32.00,458.672, 32.00,437.328l0.00-426.656 C 32.00-10.672, 52.80-32.00, 73.60-32.00l 332.80,0.00 
	c 20.784,0.00, 41.60,21.328, 41.60,42.672L 448.00,309.328 L 281.60,480.00z M 176.00,224.00L 176.00,384.00 l 128.00,0.00 l0.00-160.00 l 96.00,0.00 L 240.00,64.00L 80.00,224.00L 176.00,224.00 z" />
<glyph unicode="&#x64;" d="M 281.60,480.00l-208.00,0.00 C 52.80,480.00, 32.00,458.672, 32.00,437.328l0.00-426.656 C 32.00-10.672, 52.80-32.00, 73.60-32.00l 332.80,0.00 
	c 20.784,0.00, 41.60,21.328, 41.60,42.672L 448.00,309.328 L 281.60,480.00z M 304.00,224.00l0.00-160.00 l-128.00,0.00 L 176.00,224.00 L 80.00,224.00 L 240.00,384.00l 160.00-160.00L 304.00,224.00 z" />
<glyph unicode="&#x65;" d="M 73.60,480.00C 52.80,480.00, 32.00,458.656, 32.00,437.344l0.00-426.688 C 32.00-10.656, 52.80-32.00, 73.60-32.00l 332.80,0.00 
	c 20.784,0.00, 41.60,21.344, 41.60,42.656L 448.00,309.344 L 281.60,480.00L 73.60,480.00 z" />
<glyph unicode="&#x66;" d="M 96.00,256.00l 96.00,0.00 L 192.00,352.00 l 64.00,0.00 l0.00-96.00 l 96.00,0.00 l0.00-64.00 l-96.00,0.00 l0.00-96.00 l-64.00,0.00 l0.00,96.00 L 96.00,192.00 L 96.00,256.00 z M 73.60,480.00C 52.80,480.00, 32.00,458.672, 32.00,437.328l0.00-426.656 
	C 32.00-10.672, 52.80-32.00, 73.60-32.00l 332.80,0.00 c 20.80,0.00, 41.60,21.328, 41.60,42.672L 448.00,309.328 L 281.60,480.00L 73.60,480.00 z" />
<glyph unicode="&#x67;" d="M 128.00,256.00l 224.00,0.00 l0.00-64.00 L 128.00,192.00 L 128.00,256.00 z M 73.60,480.00C 52.80,480.00, 32.00,458.672, 32.00,437.328l0.00-426.656 C 32.00-10.672, 52.80-32.00, 73.60-32.00
	l 332.80,0.00 c 20.80,0.00, 41.60,21.328, 41.60,42.672L 448.00,309.328 L 281.60,480.00L 73.60,480.00 z" />
<glyph unicode="&#x68;" d="M 32.00,32.00l0.00-32.00 l 448.00,0.00 l0.00,32.00 L 32.00,32.00 z M 192.00,448.00c-16.00,0.00-32.00-16.00-32.00-32.00l0.00-320.00 l 64.00,0.00 L 224.00,416.00 C 224.00,432.00, 208.00,448.00, 192.00,448.00z M 448.00,384.00c-16.00,0.00-32.00-16.00-32.00-32.00
	l0.00-256.00 l 64.00,0.00 L 480.00,352.00 C 480.00,368.00, 464.00,384.00, 448.00,384.00z M 320.00,256.00c-16.00,0.00-32.00-16.00-32.00-32.00l0.00-128.00 l 64.00,0.00 l0.00,128.00 C 352.00,240.00, 336.00,256.00, 320.00,256.00z M 64.00,320.00c-16.00,0.00-32.00-16.00-32.00-32.00l0.00-192.00 l 64.00,0.00 L 96.00,288.00 C 96.00,304.00, 80.00,320.00, 64.00,320.00z" />
<glyph unicode="&#x6a;" d="M 64.00,384.00l 384.00,0.00 l0.00-256.00 L 64.00,128.00 L 64.00,384.00 z M 64.00,448.00C 32.00,448.00,0.00,416.00,0.00,384.00l0.00-256.00 c0.00-32.00, 32.00-64.00, 64.00-64.00l 96.00,0.00 l0.00-64.00 c0.00-16.00, 16.00-32.00, 32.00-32.00s 32.00,16.00, 32.00,32.00l0.00,64.00 l 64.00,0.00 l0.00-64.00 
	c0.00-16.00, 16.00-32.00, 32.00-32.00s 32.00,16.00, 32.00,32.00l0.00,64.00 l 96.00,0.00 c 32.00,0.00, 64.00,32.00, 64.00,64.00L 512.00,384.00 c0.00,32.00-32.00,64.00-64.00,64.00L 64.00,448.00 z M 352.00,224.00l0.00-64.00 l 64.00,0.00 l0.00,64.00 L 352.00,224.00 z M 224.00,288.00l0.00-128.00 l 64.00,0.00 l0.00,128.00 L 224.00,288.00 z M 96.00,352.00l0.00-192.00 l 64.00,0.00 L 160.00,352.00 L 96.00,352.00 z" />
<glyph unicode="&#x6f;" d="M 32.00,288.00L 256.00,288.00L 256.00,448.00L 480.00,224.00L 256.00,0.00L 256.00,160.00L 32.00,160.00 z" />
<glyph unicode="&#x70;" d="M 480.00,160.00L 256.00,160.00L 256.00,0.00L 32.00,224.00L 256.00,448.00L 256.00,288.00L 480.00,288.00 z" />
<glyph unicode="&#x7b;" d="M 176.00,352.00l 160.00,0.00 l-80.00,128.00L 176.00,352.00z M 176.00,96.00l 80.00-128.00l 80.00,128.00L 176.00,96.00 z M 128.00,144.00L 128.00,304.00 l-128.00-80.00L 128.00,144.00z M 384.00,144.00l 128.00,80.00l-128.00,80.00L 384.00,144.00 z" />
<glyph unicode="&#x7c;" d="M 196.00,320.00L 256.00,416.00l 60.00-96.00L 196.00,320.00 z M 196.00,128.00l 120.00,0.00 L 256.00,32.00L 196.00,128.00z M 160.00,164.00L 64.00,224.00
	l 96.00,60.00L 160.00,164.00 z M 352.00,164.00l0.00,120.00 L 448.00,224.00L 352.00,164.00z M0.00,224.00c0.00-141.392, 114.608-256.00, 256.00-256.00s 256.00,114.608, 256.00,256.00S 397.392,480.00, 256.00,480.00S0.00,365.392,0.00,224.00z" />
<glyph unicode="&#x7d;" d="M 420.528,228.144c-0.064-70.032-40.112-129.36-105.088-155.696
	c-64.272-26.032-133.552-11.936-182.368,36.928l 53.424,53.36L 32.00,162.736 l0.00-154.304 l 59.008,58.944c 66.064-66.144, 159.808-85.184, 246.80-49.952
	c 87.92,35.648, 142.112,115.904, 142.192,210.688L 420.528,228.144z M 91.472,219.856c 0.064,70.032, 40.096,129.36, 105.088,155.68
	c 64.272,26.048, 133.552,11.968, 182.352-36.928l-53.408-53.344L 480.00,285.264 L 480.00,439.568 L 420.992,380.64c-66.064,66.128-159.824,85.184-246.80,49.952
	C 86.256,394.96, 32.08,314.672, 32.00,219.904L 91.472,219.856z" />
<glyph unicode="&#xe000;" d="M 32.00,416.00l 448.00,0.00 l0.00-384.00 L 32.00,32.00 L 32.00,416.00 z M 64.00,448.00C 32.00,448.00,0.00,416.00,0.00,384.00l0.00-320.00 c0.00-32.00, 32.00-64.00, 64.00-64.00l 384.00,0.00 c 32.00,0.00, 64.00,32.00, 64.00,64.00L 512.00,384.00 c0.00,32.00-32.00,64.00-64.00,64.00L 64.00,448.00 z
	 M 64.00,336.00c0.00-26.512, 21.488-48.00, 48.00-48.00c 26.496,0.00, 48.00,21.488, 48.00,48.00S 138.496,384.00, 112.00,384.00C 85.488,384.00, 64.00,362.512, 64.00,336.00z M 448.00,352.00c-0.176,1.488-0.368,0.592-0.48-2.40
	C 447.856,350.64, 448.064,351.408, 448.00,352.00z M 448.00,64.00c0.00,0.00-1.744,252.416-0.48,285.60c-7.632-23.408-113.952-125.424-164.80-188.64L 192.00,256.00c0.00,0.00-128.00-168.00-128.00-160.00l0.00-32.00 
	l 160.00,0.00 l 128.00,0.00 L 448.00,64.00 z" />
<glyph unicode="&#xe001;" d="M 480.00,373.504L 472.576,480.00L 124.432,371.296L 128.00,279.92l0.00-157.824 
	c-9.312,1.376-18.56,1.568-27.12,0.496C 59.024,117.408,0.00,76.88,0.00,33.104c0.00-47.088, 67.136-73.232, 114.336-62.864
	c 44.544,9.808, 94.208,56.656, 87.424,96.88L 192.00,92.768L 192.00,279.92 l 224.00,75.968l0.00-172.816 c-12.72,3.024-25.76,4.064-37.504,2.592
	c-41.84-5.168-100.88-45.712-100.88-89.456c0.00-47.088, 67.136-73.248, 114.336-62.88c 44.56,9.792, 94.208,56.656, 87.424,96.88L 480.00,155.152L 480.00,373.504 z" />
<glyph unicode="&#xe002;" d="M 131.664,224.00c0.00,68.672, 55.664,124.336, 124.336,124.336s 124.336-55.664, 124.336-124.336
	S 324.672,99.664, 256.00,99.664S 131.664,155.328, 131.664,224.00z M0.00,224.00c0.00-141.392, 114.608-256.00, 256.00-256.00s 256.00,114.608, 256.00,256.00S 397.392,480.00, 256.00,480.00S0.00,365.392,0.00,224.00z
	 M 197.488,224.00c0.00-32.32, 26.208-58.512, 58.512-58.512S 314.512,191.68, 314.512,224.00S 288.32,282.512, 256.00,282.512S 197.488,256.32, 197.488,224.00z" />
<glyph unicode="&#xe003;" d="M 128.00,192.00c0.00,70.688, 57.312,128.00, 128.00,128.00s 128.00-57.312, 128.00-128.00c0.00-70.688-57.312-128.00-128.00-128.00S 128.00,121.312, 128.00,192.00z M0.00,320.00
	l0.00-256.00 c0.00-32.00, 32.00-64.00, 64.00-64.00l 384.00,0.00 c 32.00,0.00, 64.00,32.00, 64.00,64.00L 512.00,320.00 c0.00,32.00-32.00,64.00-64.00,64.00l-99.36,0.00 C 350.816,389.152, 352.00,394.576, 352.00,400.00c0.00,24.00-24.00,48.00-48.00,48.00l-96.00,0.00 c-24.00,0.00-48.00-24.00-48.00-48.00
	c0.00-5.424, 1.184-10.848, 3.36-16.00L 64.00,384.00 C 32.00,384.00,0.00,352.00,0.00,320.00z M 192.00,192.00c0.00-35.344, 28.656-64.00, 64.00-64.00s 64.00,28.656, 64.00,64.00s-28.656,64.00-64.00,64.00S 192.00,227.344, 192.00,192.00z" />
<glyph unicode="&#xe004;" d="M 416.00,160.00l 32.00,0.00 l0.00-64.00 l-32.00,0.00 L 416.00,160.00 z M 416.00,64.00l 32.00,0.00 l0.00-64.00 l-32.00,0.00 L 416.00,64.00 z M 416.00,256.00l 32.00,0.00 l0.00-64.00 l-32.00,0.00 L 416.00,256.00 z M 416.00,352.00l 32.00,0.00 l0.00-64.00 l-32.00,0.00 L 416.00,352.00 z M 416.00,448.00l 32.00,0.00 l0.00-64.00 
	l-32.00,0.00 L 416.00,448.00 z M 64.00,160.00l 32.00,0.00 l0.00-64.00 L 64.00,96.00 L 64.00,160.00 z M 64.00,64.00l 32.00,0.00 l0.00-64.00 L 64.00,0.00 L 64.00,64.00 z M 64.00,256.00l 32.00,0.00 l0.00-64.00 L 64.00,192.00 L 64.00,256.00 z M 64.00,352.00l 32.00,0.00 l0.00-64.00 L 64.00,288.00 L 64.00,352.00 z M 64.00,448.00l 32.00,0.00 l0.00-64.00 L 64.00,384.00 L 64.00,448.00 z M 384.00,192.00l0.00-192.00 L 128.00,0.00 L 128.00,192.00 L 384.00,192.00 z M 128.00,448.00l 256.00,0.00 l0.00-192.00 L 128.00,256.00 L 128.00,448.00 z M 32.00,480.00l0.00-512.00 
	l 448.00,0.00 L 480.00,480.00 L 32.00,480.00 z" />
<glyph unicode="&#xe005;" d="M 64.00,448.00l 384.00,0.00 l0.00-320.00 L 64.00,128.00 L 64.00,448.00 z M 96.00,480.00C 64.00,480.00, 32.00,448.00, 32.00,416.00l0.00-384.00 c0.00-32.00, 32.00-64.00, 64.00-64.00l 320.00,0.00 c 32.00,0.00, 64.00,32.00, 64.00,64.00L 480.00,416.00 c0.00,32.00-32.00,64.00-64.00,64.00L 96.00,480.00 z
	" />
<glyph unicode="&#xe006;" d="M 96.00,448.00l 320.00,0.00 l0.00-160.00 L 96.00,288.00 L 96.00,448.00 z M 160.00,128.00c0.00,53.008, 42.992,96.00, 96.00,96.00s 96.00-42.992, 96.00-96.00c0.00-53.024-42.992-96.00-96.00-96.00
	S 160.00,74.976, 160.00,128.00z M 64.00,416.00l0.00-384.00 c0.00-32.00, 32.00-64.00, 64.00-64.00l 256.00,0.00 c 32.00,0.00, 64.00,32.00, 64.00,64.00L 448.00,416.00 c0.00,32.00-32.00,64.00-64.00,64.00L 128.00,480.00 C 96.00,480.00, 64.00,448.00, 64.00,416.00z M 224.00,128.00c0.00-17.664, 14.336-32.00, 32.00-32.00s 32.00,14.336, 32.00,32.00
	s-14.336,32.00-32.00,32.00S 224.00,145.664, 224.00,128.00z" />
<glyph unicode="&#xe007;" d="M 128.00,224.00c0.00,70.688, 57.312,128.00, 128.00,128.00s 128.00-57.312, 128.00-128.00c0.00-70.688-57.312-128.00-128.00-128.00S 128.00,153.312, 128.00,224.00z M 96.00,384.00
	c-32.00,0.00-64.00-32.00-64.00-64.00l0.00-192.00 c0.00-32.00, 32.00-64.00, 64.00-64.00l 320.00,0.00 c 32.00,0.00, 64.00,32.00, 64.00,64.00L 480.00,320.00 c0.00,32.00-32.00,64.00-64.00,64.00L 96.00,384.00 z M 192.00,224.00c0.00-35.344, 28.656-64.00, 64.00-64.00s 64.00,28.656, 64.00,64.00s-28.656,64.00-64.00,64.00
	S 192.00,259.344, 192.00,224.00z" />
<glyph unicode="&#xe008;" d="M 224.00,480.00l0.00-128.00 l 64.00,0.00 L 288.00,480.00 L 224.00,480.00 z M 64.00,416.00l0.00-320.00 c0.00-64.00, 64.00-128.00, 128.00-128.00l 128.00,0.00 c 64.00,0.00, 128.00,64.00, 128.00,128.00L 448.00,416.00 c0.00,32.00-32.00,64.00-64.00,64.00l-64.00,0.00 l0.00-160.00 l-128.00,0.00 L 192.00,480.00 L 128.00,480.00 
	C 96.00,480.00, 64.00,448.00, 64.00,416.00z" />
<glyph unicode="&#xe009;" d="M 224.00,96.00l 138.752-92.496C 389.376-14.256, 416.00,0.00, 416.00,32.00L 416.00,416.00 c0.00,32.00-26.624,46.256-53.248,28.496L 224.00,352.00
	l-64.00,0.00 c-32.00,0.00-64.00-32.00-64.00-64.00l0.00-128.00 c0.00-32.00, 32.00-64.00, 64.00-64.00L 224.00,96.00 z" />
<glyph unicode="&#xe00a;" d="M 64.00,416.00l 384.00,0.00 l0.00-256.00 L 64.00,160.00 L 64.00,416.00 z M 64.00,480.00C 32.00,480.00,0.00,448.00,0.00,416.00l0.00-256.00 c0.00-32.00, 32.00-64.00, 64.00-64.00l 160.00,0.00 l0.00-64.00 L 128.00,32.00 l0.00-64.00 l 256.00,0.00 l0.00,64.00 l-96.00,0.00 l0.00,64.00 l 160.00,0.00 
	c 32.00,0.00, 64.00,32.00, 64.00,64.00L 512.00,416.00 c0.00,32.00-32.00,64.00-64.00,64.00L 64.00,480.00 z" />
<glyph unicode="&#xe00b;" d="M0.00,284.976L0.00-32.00 l 89.824,0.00 L 89.824,284.976 L0.00,284.976 z M 134.736,284.976L 134.736-32.00 l 332.352,0.00 
	C 489.552-32.00, 512.00-9.36, 512.00,13.28L 512.00,64.00 l-128.00,0.00 l0.00,32.00 l 128.00,0.00 l0.00,64.00 l-128.00,0.00 l0.00,32.00 l 128.00,0.00 l0.00,47.696 c0.00,22.64-22.448,45.28-44.912,45.28L 260.496,284.976 L 260.496,402.72 
	c0.00,22.64-22.464,45.28-44.928,45.28s-44.912-22.64-44.912-45.28l0.00-117.744 L 134.736,284.976 z" />
<glyph unicode="&#xe00c;" d="M0.00,131.008L0.00,448.00 l 89.824,0.00 l0.00-316.992 L0.00,131.008 z M 134.736,131.008L 134.736,448.00 l 332.352,0.00 C 489.552,448.00, 512.00,425.36, 512.00,402.72L 512.00,352.00 
	l-128.00,0.00 l0.00-32.00 l 128.00,0.00 l0.00-64.00 l-128.00,0.00 l0.00-32.00 l 128.00,0.00 l0.00-47.696 c0.00-22.64-22.448-45.28-44.912-45.28L 260.48,131.024 l0.00-117.728 c0.00-22.64-22.448-45.28-44.912-45.28s-44.928,22.64-44.928,45.28l0.00,117.728 
	L 134.736,131.024 z" />
<glyph unicode="&#xe00d;" d="M 96.00,128.00c0.00,16.00, 16.00,32.00, 32.00,32.00l 256.00,0.00 c 16.00,0.00, 32.00-16.00, 32.00-32.00s-16.00-32.00-32.00-32.00L 128.00,96.00 C 112.00,96.00, 96.00,112.00, 96.00,128.00z M 96.00,288.00
	c0.00,35.344, 28.656,64.00, 64.00,64.00s 64.00-28.656, 64.00-64.00s-28.656-64.00-64.00-64.00S 96.00,252.656, 96.00,288.00z M 288.00,288.00c0.00,35.344, 28.656,64.00, 64.00,64.00s 64.00-28.656, 64.00-64.00s-28.656-64.00-64.00-64.00
	S 288.00,252.656, 288.00,288.00z M0.00,224.00c0.00-141.392, 114.608-256.00, 256.00-256.00s 256.00,114.608, 256.00,256.00c0.00,141.376-114.608,256.00-256.00,256.00S0.00,365.376,0.00,224.00z" />
<glyph unicode="&#xe00e;" d="M 96.00,288.00c0.00,35.344, 28.656,64.00, 64.00,64.00s 64.00-28.656, 64.00-64.00s-28.656-64.00-64.00-64.00S 96.00,252.656, 96.00,288.00z M 288.00,288.00
	c0.00,35.344, 28.656,64.00, 64.00,64.00s 64.00-28.656, 64.00-64.00s-28.656-64.00-64.00-64.00S 288.00,252.656, 288.00,288.00z M 96.00,145.136c 13.504,26.624, 308.88,28.864, 320.00,0.00
	C 438.464,86.832, 326.688,32.00, 256.00,32.00S 96.00,82.656, 96.00,145.136z M0.00,224.00c0.00-141.392, 114.608-256.00, 256.00-256.00s 256.00,114.608, 256.00,256.00c0.00,141.376-114.608,256.00-256.00,256.00
	S0.00,365.376,0.00,224.00z" />
<glyph unicode="&#xe00f;" d="M 372.352,448.00C 323.792,448.00, 281.008,391.456, 256.00,354.208C 230.992,391.456, 188.208,448.00, 139.648,448.00C 62.512,448.00,0.00,386.112,0.00,309.776
		c0.00-43.984, 20.752-83.152, 53.088-108.464C 87.152,169.856, 243.36,25.024, 255.952,2.88l0.00-0.128 c0.00,0.016, 0.032,0.048, 0.048,0.064
		c0.00-0.016, 0.032-0.048, 0.048-0.064L 256.048,2.88 c 12.576,22.16, 168.80,166.992, 202.864,198.432C 491.248,226.624, 512.00,265.808, 512.00,309.776
		C 512.00,386.112, 449.488,448.00, 372.352,448.00z" />
<glyph unicode="&#xe010;" d="M 219.744,363.456c0.00,27.248, 21.616,49.328, 48.288,49.328c 26.656,0.00, 48.288-22.08, 48.288-49.328
	c0.00-27.264-21.632-49.344-48.288-49.344C 241.36,314.112, 219.744,336.208, 219.744,363.456z M 260.432,224.40L 512.00,289.184
	C 481.568,403.36, 380.848,479.856, 260.752,480.00C 140.672,480.144, 39.744,403.904, 9.024,289.792c-30.736-114.096, 18.592-229.424, 123.024-287.664
	c 104.432-58.272, 230.48-40.752, 314.384,43.664L 260.432,224.40z" />
<glyph unicode="&#xe011;" d="M 213.952,446.672c 21.024,44.432, 63.056,44.432, 84.096,0.00l 52.176-110.32l 116.672-17.68
	c 47.008-7.136, 59.984-48.848, 25.984-83.44l-84.416-85.872l 19.92-121.248c 8.032-48.848-25.968-74.64-68.016-51.568L 256.00,33.776l-104.352-57.232
	c-42.048-23.072-76.048,2.72-68.016,51.568l 19.92,121.248l-84.416,85.872c-34.016,34.592-21.008,76.304, 25.984,83.44l 116.672,17.68L 213.952,446.672z" />
<glyph unicode="&#xe012;" d="M 229.712,363.168c 13.136,27.776, 39.424,27.776, 52.544,0.00l 32.624-68.96l 72.928-11.056
	c 29.376-4.448, 37.488-30.512, 16.24-52.144l-52.768-53.664l 12.448-75.776c 5.008-30.528-16.24-46.64-42.512-32.224L 256.00,105.12l-65.216-35.776
	c-26.288-14.416-47.536,1.68-42.512,32.224l 12.448,75.776l-52.768,53.664c-21.264,21.632-13.136,47.696, 16.24,52.144l 72.928,11.056L 229.712,363.168z
	 M 213.968,446.672l-52.192-110.32l-116.672-17.68c-47.008-7.136-60.00-48.848-25.984-83.44l 84.416-85.872l-19.92-121.248
	c-8.032-48.848, 25.968-74.64, 68.016-51.568L 256.00,33.776l 104.352-57.232c 42.048-23.072, 76.048,2.72, 68.016,51.568l-19.92,121.248l 84.416,85.872
	c 34.016,34.592, 21.008,76.304-25.984,83.44l-116.672,17.68l-52.192,110.32C 277.008,491.104, 234.992,491.104, 213.968,446.672z" />
<glyph unicode="&#xe013;" d="M 512.00,416.00L 9.568,416.00 l 226.64-190.40L 512.00,416.00z M0.00,364.48L0.00,32.00 l 510.72,0.00 L 510.72,368.48 L 236.208,128.00L0.00,364.48z" />
<glyph unicode="&#xe014;" d="M0.00,256.00c0.00-40.496, 23.456-78.144, 58.40-109.12L 32.00,0.00l 144.48,80.464
	C 208.112,69.872, 239.968,64.00, 268.192,64.00C 375.904,64.00, 512.00,149.952, 512.00,256.00c0.00,106.032-136.096,192.00-243.808,192.00S0.00,362.032,0.00,256.00z" />
<glyph unicode="&#xe015;" d="M0.00,282.672c0.00-62.288, 57.584-156.56, 118.96-164.48L 163.632,32.00l 100.448,85.328l 115.952,0.00 
	C 446.016,117.328, 512.00,216.00, 512.00,282.672C 512.00,349.328, 446.016,416.00, 380.032,416.00L 131.968,416.00 C 65.984,416.00,0.00,349.328,0.00,282.672z" />
<glyph unicode="&#xe016;" d="M 128.00,384.00c0.00-48.624, 28.592-121.184, 66.40-161.76C 71.168,207.344, 32.00,99.184, 32.00-32.00l 448.00,0.00 
	c0.00,131.184-39.184,239.344-162.40,254.24C 355.408,262.816, 384.00,335.376, 384.00,384.00c0.00,70.688-57.312,96.00-128.00,96.00S 128.00,454.688, 128.00,384.00z" />
<glyph unicode="&#xe017;" d="M 298.208,291.248L 298.208,448.00L 213.792,448.00L 213.792,291.248L 96.00,291.248L 256.00,128.00L 416.00,291.248 	zM 448.00,192.00L 448.00,64.00L 64.00,64.00L 64.00,192.00L0.00,192.00L0.00,0.00L 512.00,0.00L 512.00,192.00 	z" />
<glyph unicode="&#xe018;" d="M 213.792,128.00L 298.208,128.00L 298.208,284.752L 416.00,284.752L 256.00,448.00L 96.00,284.752L 213.792,284.752 	zM 448.00,192.00L 448.00,64.00L 64.00,64.00L 64.00,192.00L0.00,192.00L0.00,0.00L 512.00,0.00L 512.00,192.00 	z" />
<glyph unicode="&#xe019;" d="M 40.00,192.00L 158.544,352.00l 194.912,0.00 L 472.00,192.00L 384.00,192.00 l-64.00-64.00l-128.00,0.00 l-64.00,64.00L 40.00,192.00 z M 140.496,384.00L0.00,192.00l0.00-160.00 l 512.00,0.00 L 512.00,192.00 
	L 371.504,384.00L 140.496,384.00 z" />
<glyph unicode="&#xe01a;" d="M 64.00,320.00c0.00,48.00, 48.00,96.00, 96.00,96.00l 192.00,0.00 c 48.00,0.00, 96.00-48.00, 96.00-96.00l0.00-192.00 c0.00-48.00-48.00-96.00-96.00-96.00L 160.00,32.00 c-48.00,0.00-96.00,48.00-96.00,96.00L 64.00,320.00 z M0.00,352.00l0.00-256.00 
	c0.00-64.00, 64.00-128.00, 128.00-128.00l 256.00,0.00 c 64.00,0.00, 128.00,64.00, 128.00,128.00L 512.00,352.00 c0.00,64.00-64.00,128.00-128.00,128.00L 128.00,480.00 C 64.00,480.00,0.00,416.00,0.00,352.00z M 160.00,224.00c0.00-53.008, 42.992-96.00, 96.00-96.00s 96.00,42.992, 96.00,96.00s-42.992,96.00-96.00,96.00S 160.00,277.008, 160.00,224.00z" />
<glyph unicode="&#xe01b;" d="M 64.00,320.00c0.00,48.00, 48.00,96.00, 96.00,96.00l 192.00,0.00 c 48.00,0.00, 96.00-48.00, 96.00-96.00l0.00-192.00 c0.00-48.00-48.00-96.00-96.00-96.00L 160.00,32.00 c-48.00,0.00-96.00,48.00-96.00,96.00L 64.00,320.00 z M0.00,352.00l0.00-256.00 
	c0.00-64.00, 64.00-128.00, 128.00-128.00l 256.00,0.00 c 64.00,0.00, 128.00,64.00, 128.00,128.00L 512.00,352.00 c0.00,64.00-64.00,128.00-128.00,128.00L 128.00,480.00 C 64.00,480.00,0.00,416.00,0.00,352.00z" />
<glyph unicode="&#xe01c;" d="M 226.32,212.896L 176.00,267.072L 128.00,215.376L 224.00,112.00L 384.00,301.536L 352.00,336.00 	zM 384.00,480.00L 128.00,480.00 C 64.00,480.00,0.00,416.00,0.00,352.00l0.00-256.00 c0.00-64.00, 64.00-128.00, 128.00-128.00l 256.00,0.00 c 64.00,0.00, 128.00,64.00, 128.00,128.00L 512.00,352.00 C 512.00,416.00, 448.00,480.00, 384.00,480.00z M 448.00,128.00c0.00-48.00-48.00-96.00-96.00-96.00L 160.00,32.00 c-48.00,0.00-96.00,48.00-96.00,96.00L 64.00,320.00 c0.00,48.00, 48.00,96.00, 96.00,96.00
		l 192.00,0.00 c 48.00,0.00, 96.00-48.00, 96.00-96.00L 448.00,128.00 z" />
<glyph unicode="&#xe01d;" d="M 64.00,224.00c0.00,35.344, 28.656,64.00, 64.00,64.00s 64.00-28.656, 64.00-64.00s-28.656-64.00-64.00-64.00S 64.00,188.656, 64.00,224.00z M 128.00,96.00
	c 70.688,0.00, 128.00,57.312, 128.00,128.00s-57.312,128.00-128.00,128.00s-128.00-57.312-128.00-128.00S 57.312,96.00, 128.00,96.00z M 320.00,224.00c0.00,35.344, 28.656,64.00, 64.00,64.00s 64.00-28.656, 64.00-64.00s-28.656-64.00-64.00-64.00
	S 320.00,188.656, 320.00,224.00z M 384.00,352.00c-70.688,0.00-128.00-57.312-128.00-128.00s 57.312-128.00, 128.00-128.00s 128.00,57.312, 128.00,128.00S 454.688,352.00, 384.00,352.00z" />
<glyph unicode="&#xe01e;" d="M 192.00,224.00l-32.176-77.44L 256.00,160.00L 192.00,224.00z M 224.00,250.176L 282.192,192.00L 512.00,421.808L 453.808,480.00
	L 224.00,250.176z M 64.00,480.00C 32.00,480.00,0.00,448.00,0.00,416.00l0.00-384.00 c0.00-32.00, 32.00-64.00, 64.00-64.00l 384.00,0.00 c 32.00,0.00, 64.00,32.00, 64.00,64.00L 512.00,345.60 L 448.00,307.20L 448.00,96.00 c0.00-32.00-32.00-64.00-64.00-64.00L 128.00,32.00 c-32.00,0.00-64.00,32.00-64.00,64.00L 64.00,352.00 c0.00,32.00, 32.00,64.00, 64.00,64.00l 192.00,0.00 l 64.00,64.00L 64.00,480.00 z" />
<glyph unicode="&#xe01f;" d="M 160.00,160.00l 266.256,131.376c 28.992,14.32, 28.992,42.944,0.00,57.248L 160.00,480.00L 160.00,160.00 z M 96.00,480.00C 80.00,480.00, 64.00,464.00, 64.00,448.00
	l0.00-448.00 c0.00-16.00, 16.00-32.00, 32.00-32.00s 32.00,16.00, 32.00,32.00L 128.00,448.00 C 128.00,464.00, 112.00,480.00, 96.00,480.00z" />
<glyph unicode="&#xe020;" d="M 192.00,208.00c0.00-11.20, 16.00-22.40, 32.00-22.40l 64.00,0.00 c 16.00,0.00, 32.00,11.20, 32.00,22.40c0.00,11.184-16.00,22.40-32.00,22.40l-64.00,0.00 
	C 208.00,230.40, 192.00,219.184, 192.00,208.00z M 368.00,320.00c-23.008,0.00-46.048-18.624-61.44-45.008c 10.672-1.056, 21.216-8.56, 29.44-19.504
	c 8.88,11.856, 20.416,19.712, 32.00,19.712l 64.00,0.00 c 24.00,0.00, 48.00-33.616, 48.00-67.20s-24.00-67.20-48.00-67.20l-64.00,0.00 c-11.584,0.00-23.12,7.856-32.00,19.712
	c-8.224-10.928-18.768-18.432-29.44-19.488C 321.952,114.624, 344.992,96.00, 368.00,96.00l 64.00,0.00 c 40.00,0.00, 80.00,56.00, 80.00,112.00s-40.00,112.00-80.00,112.00L 368.00,320.00 z M 144.00,96.00
	c 23.008,0.00, 46.048,18.624, 61.44,45.024c-10.688,1.04-21.216,8.56-29.44,19.488C 167.104,148.656, 155.568,140.80, 144.00,140.80L 80.00,140.80 c-24.00,0.00-48.00,33.616-48.00,67.20
	s 24.00,67.20, 48.00,67.20l 64.00,0.00 c 11.568,0.00, 23.104-7.856, 32.00-19.712c 8.224,10.944, 18.752,18.432, 29.44,19.504C 190.048,301.376, 167.008,320.00, 144.00,320.00L 80.00,320.00 c-40.00,0.00-80.00-56.00-80.00-112.00
	s 40.00-112.00, 80.00-112.00L 144.00,96.00 z" />
<glyph unicode="&#xe026;" d="M 448.00,448.00L 64.00,448.00 c0.00-95.136, 69.184-161.68, 160.00-187.52l0.00-197.536 C 168.832,59.392, 128.00,46.912, 128.00,32.00
	c0.00-17.664, 57.312-32.00, 128.00-32.00s 128.00,14.336, 128.00,32.00c0.00,14.912-40.832,27.392-96.00,30.96L 288.00,260.48 C 378.816,286.32, 448.00,352.864, 448.00,448.00z M 128.00,416.00l 256.00,0.00 c0.00-70.688-57.312-128.00-128.00-128.00
	S 128.00,345.312, 128.00,416.00z" />
<glyph unicode="&#xe027;" d="M 448.00,448.00L 64.00,448.00 c0.00-95.136, 69.184-161.68, 160.00-187.52l0.00-197.536 C 168.832,59.392, 128.00,46.912, 128.00,32.00
	c0.00-17.664, 57.312-32.00, 128.00-32.00s 128.00,14.336, 128.00,32.00c0.00,14.912-40.832,27.392-96.00,30.96L 288.00,260.48 C 378.816,286.32, 448.00,352.864, 448.00,448.00z" />
<glyph unicode="&#xe028;" d="M0.00,128.00l0.00-64.00 c0.00-64.00, 64.00-96.00, 128.00-96.00l 256.00,0.00 c 64.00,0.00, 128.00,32.00, 128.00,96.00l0.00,64.00 L0.00,128.00 z M0.00,224.00c0.00-16.00, 16.00-32.00, 32.00-32.00l 448.00,0.00 c 16.00,0.00, 32.00,16.00, 32.00,32.00
	s-16.00,32.00-32.00,32.00L 32.00,256.00 C 16.00,256.00,0.00,240.00,0.00,224.00z M0.00,320.00l 512.00,0.00 c0.00,96.00-96.00,160.00-192.00,160.00l-128.00,0.00 C 96.00,480.00,0.00,416.00,0.00,320.00z" />
<glyph unicode="&#xe029;" d="M 320.00,320.00c0.00,16.00, 48.00,32.00, 64.00,32.00s 32.00-16.00, 32.00-32.00l0.00-128.00 c0.00-16.00-16.00-32.00-32.00-32.00s-64.00,16.00-64.00,32.00L 320.00,320.00 z M0.00,448.00l0.00-384.00 c0.00-32.00, 32.00-64.00, 64.00-64.00l 192.00,0.00 
	c 32.00,0.00, 64.00,32.00, 64.00,64.00l0.00,32.00 l 96.00,0.00 c 32.00,0.00, 64.00,32.00, 64.00,64.00L 480.00,352.00 c0.00,32.00-32.00,64.00-64.00,64.00l-96.00,0.00 L 320.00,448.00 L0.00,448.00 z" />
<glyph unicode="&#xe02a;" d="M 64.00,480.00C 32.00,480.00,0.00,448.00,0.00,416.00l0.00-384.00 c0.00-32.00, 32.00-64.00, 64.00-64.00l 384.00,0.00 c 32.00,0.00, 64.00,32.00, 64.00,64.00L 512.00,416.00 c0.00,32.00-32.00,64.00-64.00,64.00L 64.00,480.00 z M 416.00,64.00l 64.00,0.00 l0.00-64.00 l-64.00,0.00 
	L 416.00,64.00 z M 320.00,64.00l 64.00,0.00 l0.00-64.00 l-64.00,0.00 L 320.00,64.00 z M 128.00,64.00l 64.00,0.00 l0.00-64.00 L 128.00,0.00 L 128.00,64.00 z M 32.00,64.00l 64.00,0.00 l0.00-64.00 L 32.00,0.00 L 32.00,64.00 z M 416.00,160.00l 64.00,0.00 l0.00-64.00 l-64.00,0.00 L 416.00,160.00 z M 320.00,160.00l 64.00,0.00 l0.00-64.00 l-64.00,0.00 L 320.00,160.00 z M 224.00,160.00l 64.00,0.00 l0.00-64.00 l-64.00,0.00 L 224.00,160.00 z M 32.00,160.00l 64.00,0.00 l0.00-64.00 L 32.00,96.00 L 32.00,160.00 z
	 M 96.00,288.00L 32.00,288.00 L 32.00,352.00 l 64.00,0.00 L 96.00,288.00 z M 192.00,288.00L 128.00,288.00 L 128.00,352.00 l 64.00,0.00 L 192.00,288.00 z M 288.00,288.00l-64.00,0.00 L 224.00,352.00 l 64.00,0.00 L 288.00,288.00 z M 384.00,288.00l-64.00,0.00 L 320.00,352.00 l 64.00,0.00 L 384.00,288.00 z M 416.00,256.00l 64.00,0.00 l0.00-64.00 l-64.00,0.00 L 416.00,256.00 z M 320.00,256.00l 64.00,0.00 l0.00-64.00 l-64.00,0.00 L 320.00,256.00 z M 128.00,256.00l 64.00,0.00 l0.00-64.00 L 128.00,192.00 L 128.00,256.00 z M 32.00,256.00
	l 64.00,0.00 l0.00-64.00 L 32.00,192.00 L 32.00,256.00 z" />
<glyph unicode="&#xe02b;" d="M 256.00,224.00L 256.00,320.00L 224.00,320.00L 224.00,192.00L 320.00,192.00L 320.00,224.00 	zM 240.00,448.00C 107.456,448.00,0.00,340.544,0.00,208.00s 107.456-240.00, 240.00-240.00s 240.00,107.456, 240.00,240.00S 372.544,448.00, 240.00,448.00z M 240.00,28.00C 140.592,28.00, 60.00,108.576, 60.00,208.00
		C 60.00,307.408, 140.592,388.00, 240.00,388.00S 420.00,307.408, 420.00,208.00C 420.00,108.576, 339.408,28.00, 240.00,28.00z" />
<glyph unicode="&#xe02c;" d="M 480.00,416.00l-64.00,0.00 c0.00,16.00-16.00,32.00-32.00,32.00s-32.00-16.00-32.00-32.00l-64.00,0.00 c0.00,16.00-16.00,32.00-32.00,32.00s-32.00-16.00-32.00-32.00l-64.00,0.00 c0.00,16.00-16.00,32.00-32.00,32.00S 96.00,432.00, 96.00,416.00L 32.00,416.00 C 16.00,416.00,0.00,400.00,0.00,384.00l0.00-352.00 c0.00-32.00, 32.00-64.00, 64.00-64.00l 384.00,0.00 
		c 32.00,0.00, 64.00,32.00, 64.00,64.00L 512.00,384.00 C 512.00,400.00, 496.00,416.00, 480.00,416.00z M 480.00,61.856c0.00-32.00-32.00-63.984-64.00-63.984L 96.00-2.128 c-32.00,0.00-64.00,31.984-64.00,63.984L 32.00,352.00 l 448.00,0.00 L 480.00,61.856 zM 278.00,64.00L 328.496,64.00L 421.504,264.00L 421.504,288.00L 248.992,288.00L 248.992,256.00L 370.496,256.00 	zM 152.496,221.504c 3.008,2.496, 8.496,7.504, 16.496,15.504L 168.00,64.00l 48.00,0.00 L 216.00,288.00 l-39.504,0.00 l-73.504-58.00l 23.008-28.992L 152.496,221.504z" />
<glyph unicode="&#xe02d;" d="M 64.00,224.00C 64.00,330.048, 149.968,416.00, 256.00,416.00s 192.00-85.952, 192.00-192.00c0.00-106.032-85.968-192.00-192.00-192.00S 64.00,117.968, 64.00,224.00z
	 M0.00,224.00c0.00-141.392, 114.608-256.00, 256.00-256.00s 256.00,114.608, 256.00,256.00S 397.392,480.00, 256.00,480.00S0.00,365.392,0.00,224.00z M 237.536,238.288c 7.936,8.464, 20.80,8.88, 28.72,0.912
	c 7.936-7.968, 7.936-21.264,0.00-29.728c-7.92-8.448-20.784-8.864-28.72-0.912C 229.616,216.512, 229.616,229.824, 237.536,238.288z M 280.608,199.28
	l 50.064,106.496l-103.392-52.96l-45.952-110.608L 280.608,199.28z" />
<glyph unicode="&#xe021;" d="M 512.00,192.00L 416.00,288.00L 416.00,384.00L 352.00,384.00L 352.00,352.00L 256.00,448.00L0.00,192.00L 64.00,192.00L 64.00,0.00L 224.00,0.00L 224.00,128.00L 288.00,128.00L 288.00,0.00L 448.00,0.00L 448.00,192.00 	z" />
<glyph unicode="&#xe022;" d="M 488.00,456.00c-32.00,32.00-64.00,32.00-96.00,0.00l-8.00-8.00l 96.00-96.00l 8.00,8.00C 520.00,392.00, 520.00,424.00, 488.00,456.00zM 32.00,96.00L0.00-32.00l 128.00,32.00l 320.00,320.00l-96.00,96.00L 32.00,96.00z M 128.00,64.00l-32.00,32.00l 256.00,256.00l 32.00-32.00L 128.00,64.00z" />
<glyph unicode="&#xe023;" d="M 192.00,160.00L 256.00,192.00L 480.00,416.00L 448.00,448.00L 224.00,224.00 	zM 144.65,36.451c-15.816,33.364-42.833,60.381-76.198,76.198l 38.99,129.968L 192.00,288.00L 384.00,480.00l-96.00,0.00 L 96.00,288.00L0.00-32.00l 320.00,96.00l 192.00,192.00
		l0.00,96.00 L 320.00,160.00l-45.383-84.559" />
<glyph unicode="&#xe024;" d="M 490.594,399.946C 418.778,410.271, 339.428,416.00, 256.001,416.00c-83.43,0.00-162.778-5.729-234.597-16.054
	C 7.639,346.083,0.00,286.571,0.00,224.00c0.00-62.57, 7.639-122.083, 21.404-175.945C 93.223,37.729, 172.572,32.00, 256.001,32.00
	c 83.427,0.00, 162.776,5.729, 234.593,16.055C 504.36,101.917, 512.00,161.43, 512.00,224.00C 512.00,286.571, 504.36,346.083, 490.594,399.946z
	 M 192.001,128.00L 192.001,320.00 l 160.00-96.00L 192.001,128.00z" />
<glyph unicode="&#xe025;" d="M0.00,416.00l0.00-384.00 l 512.00,0.00 L 512.00,416.00 L0.00,416.00 z M 96.00,64.00L 32.00,64.00 l0.00,64.00 l 64.00,0.00 L 96.00,64.00 z M 96.00,192.00L 32.00,192.00 l0.00,64.00 l 64.00,0.00 L 96.00,192.00 z M 96.00,320.00L 32.00,320.00 L 32.00,384.00 l 64.00,0.00 L 96.00,320.00 z M 384.00,64.00L 128.00,64.00 L 128.00,384.00 l 256.00,0.00 L 384.00,64.00 z
		 M 480.00,64.00l-64.00,0.00 l0.00,64.00 l 64.00,0.00 L 480.00,64.00 z M 480.00,192.00l-64.00,0.00 l0.00,64.00 l 64.00,0.00 L 480.00,192.00 z M 480.00,320.00l-64.00,0.00 L 416.00,384.00 l 64.00,0.00 L 480.00,320.00 zM 192.00,320.00L 192.00,128.00L 320.00,224.00 	z" />
<glyph unicode="&#xe02e;" d="M 288.00,352.00L 64.00,352.00 c-17.601,0.00-32.00-14.399-32.00-32.00l0.00-192.00 c0.00-17.60, 14.399-32.00, 32.00-32.00l 224.00,0.00 c 17.601,0.00, 32.00,14.40, 32.00,32.00L 320.00,320.00 
		C 320.00,337.601, 305.601,352.00, 288.00,352.00zM 352.00,242.286L 352.00,205.715L 480.00,96.00L 480.00,352.00 	z" />
<glyph unicode="&#xe02f;" d="M 256.00,480.00L 96.00,224.00L 256.00-32.00L 416.00,224.00 z" />
<glyph unicode="&#xe030;" d="M 240.00,128.00c 44.183,0.00, 80.00,35.817, 80.00,80.00L 320.00,400.00 c0.00,44.183-35.817,80.00-80.00,80.00s-80.00-35.817-80.00-80.00l0.00-192.00 C 160.00,163.817, 195.818,128.00, 240.00,128.00zM 352.00,256.00l0.00-48.00 c0.00-61.855-50.145-112.00-112.00-112.00c-61.856,0.00-112.00,50.145-112.00,112.00l0.00,48.00 L 96.00,256.00 l0.00-48.00 c0.00-74.119, 56.002-135.15, 128.00-143.11L 224.00,0.00 
		l-64.00,0.00 l0.00-32.00 l 64.00,0.00 l 32.00,0.00 l 64.00,0.00 l0.00,32.00 l-64.00,0.00 l0.00,64.89 c 71.997,7.96, 128.00,68.991, 128.00,143.11l0.00,48.00 L 352.00,256.00 z" />
<glyph unicode="&#xe031;" d="M 384.00,416.00c-49.179,0.00-94.03-18.498-128.00-48.905C 222.031,397.502, 177.179,416.00, 128.00,416.00S 33.969,397.502,0.00,367.096l0.00-8.596 l0.00-38.49 l0.00-192.004 
	L0.00,87.50 l0.00-6.576 c 0.342-0.306, 0.676-0.62, 1.02-0.924c 8.209-7.244, 17.04-13.798, 26.406-19.569c 9.43,7.631, 19.739,14.216, 30.761,19.569
	c 21.098,10.248, 44.783,16.00, 69.813,16.00s 48.716-5.752, 69.813-16.00c 11.021-5.354, 21.331-11.938, 30.761-19.569
	c 1.842-1.491, 3.65-3.022, 5.424-4.592c 8.108-7.178, 15.488-15.159, 22.002-23.83c 6.515,8.671, 13.894,16.652, 22.002,23.83
	c 1.773,1.569, 3.581,3.101, 5.424,4.592c 9.43,7.631, 19.739,14.216, 30.761,19.569c 21.098,10.248, 44.783,16.00, 69.813,16.00
	s 48.716-5.752, 69.813-16.00c 11.021-5.354, 21.331-11.938, 30.761-19.569c 9.366,5.771, 18.196,12.325, 26.405,19.569
	c 0.344,0.304, 0.679,0.618, 1.021,0.924L 512.00,87.50 l0.00,40.506 L 512.00,320.01 L 512.00,358.50 l0.00,8.596 C 478.031,397.502, 433.179,416.00, 384.00,416.00z M 128.00,128.00
	c-34.976,0.00-67.758-9.365-96.00-25.705L 32.00,352.007 C 58.741,372.095, 91.98,384.00, 128.00,384.00c 36.025,0.00, 69.258-11.919, 96.00-32.013l0.00-249.692 
	C 195.758,118.635, 162.976,128.00, 128.00,128.00z M 384.00,128.00c-34.976,0.00-67.758-9.365-96.00-25.705L 288.00,351.987 C 314.742,372.081, 347.976,384.00, 384.00,384.00
	c 36.021,0.00, 69.259-11.906, 96.00-31.994l0.00-249.712 C 451.758,118.635, 418.976,128.00, 384.00,128.00z" />
<glyph unicode="&#xe032;" d="M 512.00,64.00c-53.021,0.00-96.00,42.98-96.00,96.00L 416.00,302.545 c0.00,70.369-54.971,129.064-128.00,142.542L 288.00,480.00 l-64.00,0.00 l0.00-34.912 
	C 150.968,431.609, 96.00,372.915, 96.00,302.546L 96.00,160.00 c0.00-53.02-42.981-96.00-96.00-96.00l0.00-32.00 l 214.799,0.00 c-2.604-5.712-4.055-12.059-4.055-18.745
	C 210.744-11.738, 231.006-32.00, 256.00-32.00c 24.992,0.00, 45.255,20.262, 45.255,45.255c0.00,6.688-1.451,13.033-4.056,18.745L 512.00,32.00 L 512.00,64.00 z" />
<glyph unicode="&#xe033;" d="M 325.608,214.818L 512.00,86.264L 512.00,382.211 	zM0.00,382.211L0.00,86.264L 186.388,214.836 	zM 256.00,152.309L 211.499,192.264L0.00,64.00L 512.00,64.00L 300.495,192.264 	zM 496.64,384.00L 15.36,384.00L 256.00,203.074 	z" />
<glyph unicode="&#xe034;" d="M 256.00,480.00c-81.67,0.00-147.871-66.202-147.871-147.87c0.00-2.014, 0.061-4.101, 0.16-6.224c 0.05-1.234, 0.126-2.454, 0.209-3.682
	c 0.051-0.779, 0.113-1.574, 0.18-2.371c 0.104-1.304, 0.21-2.61, 0.35-3.906C 121.292,196.493, 256.001-32.00, 256.001-32.00
	s 134.705,228.492, 146.97,347.948c 0.143,1.295, 0.245,2.603, 0.351,3.905c 0.065,0.797, 0.131,1.592, 0.183,2.371
	c 0.084,1.229, 0.158,2.447, 0.21,3.683c 0.097,2.124, 0.157,4.211, 0.157,6.224C 403.866,413.799, 337.666,480.00, 256.00,480.00z M 320.00,320.00
	c0.00-35.347-28.654-64.00-64.00-64.00c-35.346,0.00-64.00,28.653-64.00,64.00s 28.654,64.00, 64.00,64.00C 291.346,384.00, 320.00,355.347, 320.00,320.00z" />
<glyph unicode="&#xe035;" d="M 321.788,108.854c-11.188-6.236-20.175-2.064-32.764,4.572c-11.46,8.748-45.402,35.438-81.226,71.188
		c-26.156,33.084-46.162,64.288-55.375,79.293c-0.625,1.66-0.944,2.632-0.944,2.632c-5.397,13.476-8.771,22.92-1.324,33.521
		c 6.854,9.727, 9.50,12.383, 18.24,20.108L 80.605,450.292c-10.604-7.728-27.018-25.106-40.509-44.378
		c-12.538-18.317-23.154-38.587-26.049-53.055c 15.295-55.117, 52.258-157.896, 120.583-231.325l-0.021-0.308
		C 200.339,40.198, 304.774-10.204, 360.18-32.00c 14.679,1.385, 35.938,9.844, 55.456,20.404c 20.598,11.415, 39.567,25.945, 48.329,35.685
		L 343.677,124.918C 335.08,117.008, 332.179,114.664, 321.788,108.854zM 205.61,351.342c 7.241,5.302, 5.313,14.944, 1.926,20.245L 140.957,473.50c-4.344,5.291-13.396,8.064-21.252,5.579L 92.272,460.698
		l 88.034-129.879L 205.61,351.342zM 492.949,82.154l-94.473,76.788c-4.93,3.918-14.313,6.838-20.325,0.188l-23.046-23.05l 120.047-101.015l 21.136,25.357
		C 499.573,67.986, 497.755,77.279, 492.949,82.154z" />
<glyph unicode="&#xe036;" d="M 256.00,480.00C 114.615,480.00,0.00,365.385,0.00,224.00s 114.615-256.00, 256.00-256.00s 256.00,114.615, 256.00,256.00S 397.385,480.00, 256.00,480.00z M 160.00,224.00
	c0.00,53.02, 42.98,96.00, 96.00,96.00s 96.00-42.98, 96.00-96.00s-42.98-96.00-96.00-96.00S 160.00,170.98, 160.00,224.00z M 462.99,138.262L 462.99,138.262l-88.71,36.745
	C 380.539,190.099, 384.00,206.645, 384.00,224.00s-3.461,33.901-9.72,48.993l 61.063,25.293l 27.647,11.452C 473.944,283.327, 480.00,254.373, 480.00,224.00
	C 480.00,193.627, 473.943,164.673, 462.99,138.262L 462.99,138.262z M 341.739,430.99L 341.739,430.99L 341.739,430.99l-36.745-88.71
	C 289.902,348.539, 273.356,352.00, 256.00,352.00s-33.901-3.461-48.993-9.72l-17.23,41.599l-19.515,47.112C 196.673,441.943, 225.628,448.00, 256.00,448.00
	C 286.373,448.00, 315.327,441.943, 341.739,430.99z M 49.01,309.738l 47.112-19.515l 41.599-17.23C 131.462,257.901, 128.00,241.355, 128.00,224.00
	s 3.461-33.901, 9.72-48.993l-88.71-36.745C 38.057,164.673, 32.00,193.627, 32.00,224.00C 32.00,254.373, 38.057,283.327, 49.01,309.738z
	 M 170.262,17.01l 11.452,27.647l 25.293,61.063C 222.099,99.461, 238.645,96.00, 256.00,96.00s 33.901,3.461, 48.993,9.72l 36.745-88.71l0.00,0.00l0.00,0.00
	C 315.327,6.058, 286.373,0.00, 256.00,0.00C 225.628,0.00, 196.673,6.057, 170.262,17.01z" />
<glyph unicode="&#xe037;" d="M 192.00,480.00L 32.00,480.00 C 14.40,480.00,0.00,465.60,0.00,448.00l0.00-160.00 c0.00-17.60, 14.398-32.00, 32.00-32.00l 160.00,0.00 c 17.60,0.00, 32.00,14.40, 32.00,32.00L 224.00,448.00 C 224.00,465.60, 209.60,480.00, 192.00,480.00z M 192.00,352.00
		L 32.00,352.00 L 32.00,384.00 l 160.00,0.00 L 192.00,352.00 zM 480.00,480.00L 320.00,480.00 c-17.602,0.00-32.00-14.40-32.00-32.00l0.00-448.00 c0.00-17.60, 14.398-32.00, 32.00-32.00l 160.00,0.00 c 17.60,0.00, 32.00,14.40, 32.00,32.00L 512.00,448.00 C 512.00,465.60, 497.60,480.00, 480.00,480.00z
		 M 480.00,160.00L 320.00,160.00 l0.00,32.00 l 160.00,0.00 L 480.00,160.00 z M 480.00,256.00L 320.00,256.00 l0.00,32.00 l 160.00,0.00 L 480.00,256.00 zM 192.00,192.00L 32.00,192.00 C 14.40,192.00,0.00,177.60,0.00,160.00l0.00-160.00 c0.00-17.60, 14.398-32.00, 32.00-32.00l 160.00,0.00 c 17.60,0.00, 32.00,14.40, 32.00,32.00L 224.00,160.00 C 224.00,177.60, 209.60,192.00, 192.00,192.00
		z M 192.00,64.00l-64.00,0.00 l0.00-64.00 L 96.00,0.00 l0.00,64.00 L 32.00,64.00 l0.00,32.00 l 64.00,0.00 l0.00,64.00 l 32.00,0.00 l0.00-64.00 l 64.00,0.00 L 192.00,64.00 z" />
<glyph unicode="&#xe038;" d="M 406.494,288.00L 317.573,403.765C 319.134,407.535, 320.00,411.666, 320.00,416.00c0.00,17.673-14.326,32.00-32.00,32.00c-17.673,0.00-32.00-14.327-32.00-32.00
	s 14.327-32.00, 32.00-32.00c 1.421,0.00, 2.816,0.102, 4.188,0.282L 366.144,288.00L 145.857,288.00 l 73.956,96.282C 221.184,384.102, 222.58,384.00, 224.00,384.00
	c 17.673,0.00, 32.00,14.327, 32.00,32.00s-14.327,32.00-32.00,32.00s-32.00-14.327-32.00-32.00c0.00-4.334, 0.866-8.465, 2.427-12.234L 105.506,288.00L0.00,288.00 l0.00-64.00 l 32.00,0.00 l 32.00-256.00l 384.00,0.00 
	l 32.00,256.00l 32.00,0.00 l0.00,64.00 L 406.494,288.00 z M 160.00,32.00L 96.00,32.00 l0.00,64.00 l 64.00,0.00 L 160.00,32.00 z M 160.00,160.00L 96.00,160.00 l0.00,64.00 l 64.00,0.00 L 160.00,160.00 z M 288.00,32.00l-64.00,0.00 l0.00,64.00 l 64.00,0.00 L 288.00,32.00 z M 288.00,160.00l-64.00,0.00 l0.00,64.00 l 64.00,0.00 L 288.00,160.00 z
	 M 416.00,32.00l-64.00,0.00 l0.00,64.00 l 64.00,0.00 L 416.00,32.00 z M 416.00,160.00l-64.00,0.00 l0.00,64.00 l 64.00,0.00 L 416.00,160.00 z" />
<glyph unicode="&#xe039;" d="M 64.00,16.00A48.00,48.00 4500.00 1,0 160.00,16A48.00,48.00 4500.00 1,0 64.00,16zM 384.00,16.00A48.00,48.00 4500.00 1,0 480.00,16A48.00,48.00 4500.00 1,0 384.00,16zM 480.00,224.00L 480.00,416.00 L 64.00,416.00 C 64.00,451.346, 35.347,480.00,0.00,480.00l0.00-32.00 c 17.645,0.00, 32.00-14.355, 32.00-32.00l 24.037-206.027C 41.39,198.244, 32.00,180.223, 32.00,160.00
		c0.00-35.347, 28.654-64.00, 64.00-64.00l 384.00,0.00 l0.00,32.00 L 96.00,128.00 c-17.673,0.00-32.00,14.327-32.00,32.00c0.00,0.11, 0.007,0.218, 0.008,0.328L 480.00,224.00z" />
<glyph unicode="&#xe03a;" d="M 288.00,480.00L0.00,192.00l 224.00-224.00l 288.00,288.00L 512.00,480.00 L 288.00,480.00 z M 416.00,337.60c-25.626,0.00-46.399,20.773-46.399,46.40S 390.374,430.40, 416.00,430.40
	s 46.40-20.773, 46.40-46.40S 441.626,337.60, 416.00,337.60z" />
<glyph unicode="&#xe03b;" d="M 320.00,440.571L 320.00,288.00 L 192.00,288.00 L 192.00,440.571 C 144.201,429.454, 96.00,403.976, 96.00,352.00l0.00-212.00 c0.00-77.318, 71.634-140.00, 160.00-140.00c 88.363,0.00, 160.00,62.682, 160.00,140.00
		L 416.00,352.00 C 416.00,403.976, 367.799,429.454, 320.00,440.571zM 288.00,446.067C 276.277,447.421, 265.321,448.00, 256.00,448.00c-9.32,0.00-20.276-0.579-32.00-1.933L 224.00,320.00 l 64.00,0.00 L 288.00,446.067 z" />
<glyph unicode="&#xe03c;" d="M 512.00,64.00L 512.00,448.00 L0.00,448.00 l0.00-384.00 l 224.00,0.00 l0.00-32.00 l-96.00,0.00 l0.00-32.00 l 256.00,0.00 l0.00,32.00 l-96.00,0.00 l0.00,32.00 L 512.00,64.00 z M 64.00,384.00l 384.00,0.00 l0.00-256.00 L 64.00,128.00 L 64.00,384.00 z" />
<glyph unicode="&#xe03d;" d="M 448.00,128.00L 448.00,384.00 c0.00,17.60-14.40,32.00-32.00,32.00L 96.00,416.00 c-17.60,0.00-32.00-14.40-32.00-32.00l0.00-256.00 L0.00,128.00 l0.00-96.00 l 512.00,0.00 l0.00,96.00 L 448.00,128.00 z M 320.00,64.00L 192.00,64.00 l0.00,32.00 l 128.00,0.00 L 320.00,64.00 z M 416.00,128.00L 96.00,128.00 
	L 96.00,383.943 c 0.017,0.02, 0.038,0.041, 0.057,0.057l 319.885,0.00 c 0.02-0.017, 0.041-0.038, 0.058-0.058L 416.00,128.00 z" />
<glyph unicode="&#xe03e;" d="M 384.00,480.00L 96.00,480.00 C 78.40,480.00, 64.00,465.601, 64.00,448.00l0.00-448.00 c0.00-17.60, 14.399-32.00, 32.00-32.00l 288.00,0.00 c 17.60,0.00, 32.00,14.40, 32.00,32.00L 416.00,448.00 C 416.00,465.601, 401.60,480.00, 384.00,480.00z
	 M 240.00-8.891c-13.746,0.00-24.891,11.145-24.891,24.891s 11.145,24.891, 24.891,24.891s 24.891-11.145, 24.891-24.891
	S 253.746-8.891, 240.00-8.891z M 384.00,64.00L 96.00,64.00 L 96.00,416.00 l 288.00,0.00 L 384.00,64.00 z" />
<glyph unicode="&#xe03f;" d="M 416.00,480.00L 96.00,480.00 C 78.40,480.00, 64.00,465.60, 64.00,448.00l0.00-448.00 c0.00-17.60, 14.40-32.00, 32.00-32.00l 320.00,0.00 c 17.60,0.00, 32.00,14.40, 32.00,32.00L 448.00,448.00 C 448.00,465.60, 433.60,480.00, 416.00,480.00z M 256.00-16.00
	c-8.837,0.00-16.00,7.163-16.00,16.00s 7.163,16.00, 16.00,16.00s 16.00-7.163, 16.00-16.00S 264.837-16.00, 256.00-16.00z M 384.00,32.00L 128.00,32.00 L 128.00,416.00 l 256.00,0.00 L 384.00,32.00 z" />
<glyph unicode="&#xe040;" d="M 336.00,480.00c-8.837,0.00-16.00-7.163-16.00-16.00l0.00-48.00 L 144.00,416.00 c-8.836,0.00-16.00-7.163-16.00-16.00l0.00-416.00 c0.00-8.836, 7.164-16.00, 16.00-16.00l 192.00,0.00 c 8.837,0.00, 16.00,7.164, 16.00,16.00L 352.00,464.00 
	C 352.00,472.837, 344.837,480.00, 336.00,480.00z M 192.00,0.00l-32.00,0.00 l0.00,32.00 l 32.00,0.00 L 192.00,0.00 z M 192.00,64.00l-32.00,0.00 l0.00,32.00 l 32.00,0.00 L 192.00,64.00 z M 192.00,128.00l-32.00,0.00 l0.00,32.00 l 32.00,0.00 L 192.00,128.00 z M 256.00,0.00l-32.00,0.00 l0.00,32.00 l 32.00,0.00 L 256.00,0.00 z
	 M 256.00,64.00l-32.00,0.00 l0.00,32.00 l 32.00,0.00 L 256.00,64.00 z M 256.00,128.00l-32.00,0.00 l0.00,32.00 l 32.00,0.00 L 256.00,128.00 z M 320.00,0.00l-32.00,0.00 l0.00,32.00 l 32.00,0.00 L 320.00,0.00 z M 320.00,64.00l-32.00,0.00 l0.00,32.00 l 32.00,0.00 L 320.00,64.00 z M 320.00,128.00l-32.00,0.00 l0.00,32.00 l 32.00,0.00 L 320.00,128.00 z
	 M 320.00,208.00c0.00-8.836-7.163-16.00-16.00-16.00L 176.00,192.00 c-8.836,0.00-16.00,7.164-16.00,16.00L 160.00,368.00 c0.00,8.837, 7.164,16.00, 16.00,16.00l 128.00,0.00 c 8.837,0.00, 16.00-7.163, 16.00-16.00L 320.00,208.00 z" />
<glyph unicode="&#xe041;" d="M 352.00,384.00L 160.00,384.00 L0.00,192.00l0.00-80.00 l0.00-48.00 c0.00-17.673, 14.327-32.00, 32.00-32.00l 448.00,0.00 c 17.674,0.00, 32.00,14.327, 32.00,32.00l0.00,48.00 l0.00,80.00 L 352.00,384.00z M 384.00,192.00l-64.00-64.00L 192.00,128.00 
	l-64.00,64.00L 41.655,192.00 l 133.333,160.00l 162.024,0.00 l 133.333-160.00L 384.00,192.00 z" />
<glyph unicode="&#xe042;" d="M 352.00,384.00L 160.00,384.00 L0.00,192.00l0.00-128.00 c0.00-17.673, 14.327-32.00, 32.00-32.00l 448.00,0.00 c 17.674,0.00, 32.00,14.327, 32.00,32.00L 512.00,192.00 L 352.00,384.00z M 320.00,128.00L 192.00,128.00 l-32.00,32.00l 192.00,0.00 
		L 320.00,128.00z M 41.655,192.00l 133.333,160.00l 162.024,0.00 l 133.333-160.00L 41.655,192.00 zM 142.482,288.00L 369.518,288.00L 342.851,320.00L 169.148,320.00 	zM 89.149,224.00L 422.852,224.00L 396.185,256.00L 115.815,256.00 	z" />
<glyph unicode="&#xe043;" d="M 416.00,448.00L 96.00,448.00 L0.00,352.00l0.00-336.00 c0.00-8.837, 7.163-16.00, 16.00-16.00l 480.00,0.00 c 8.836,0.00, 16.00,7.163, 16.00,16.00L 512.00,352.00 L 416.00,448.00z M 256.00,64.00L 96.00,192.00l 96.00,0.00 l0.00,96.00 l 128.00,0.00 l0.00-96.00 l 96.00,0.00 
	L 256.00,64.00z M 77.255,384.00l 32.00,32.00l 293.489,0.00 l 32.00-32.00L 77.255,384.00 z" />
<glyph unicode="&#xe044;" d="M 416.00,448.00L 96.00,448.00 L0.00,352.00l0.00-336.00 c0.00-8.837, 7.163-16.00, 16.00-16.00l 480.00,0.00 c 8.836,0.00, 16.00,7.163, 16.00,16.00L 512.00,352.00 L 416.00,448.00z M 320.00,160.00l0.00-96.00 L 192.00,64.00 l0.00,96.00 L 96.00,160.00 l 160.00,128.00
	l 160.00-128.00L 320.00,160.00 z M 77.255,384.00l 32.00,32.00l 293.488,0.00 l 32.00-32.00L 77.255,384.00 z" />
<glyph unicode="&#xe045;" d="M 256.00,480.00C 114.614,480.00,0.00,444.184,0.00,400.00l0.00-64.00 c0.00-44.183, 114.611-80.00, 256.00-80.00c 141.385,0.00, 256.00,35.817, 256.00,80.00L 512.00,400.00 C 512.00,444.184, 397.385,480.00, 256.00,480.00
		zM 255.193,224.00C 140.566,224.00, 43.94,247.543, 11.32,280.00C 3.705,272.423,0.00,264.361,0.00,256.00l0.00-64.00 c0.00-44.184, 114.611-80.00, 256.00-80.00
		c 141.385,0.00, 256.00,35.816, 256.00,80.00l0.00,64.00 c0.00,8.361-4.516,16.423-12.131,24.00C 467.25,247.543, 369.82,224.00, 255.193,224.00zM 255.193,80.00C 140.566,80.00, 43.94,103.544, 11.32,136.00C 3.705,128.424,0.00,120.361,0.00,112.00l0.00-64.00 c0.00-44.183, 114.611-80.00, 256.00-80.00
		c 141.385,0.00, 256.00,35.817, 256.00,80.00l0.00,64.00 c0.00,8.361-4.516,16.424-12.131,24.00C 467.25,103.544, 369.82,80.00, 255.193,80.00z" />
<glyph unicode="&#xe046;" d="M 380.931-32.00C 437.794,71.016, 447.375,228.153, 224.00,222.912L 224.00,96.00 L 32.00,288.00L 224.00,480.00l0.00-124.186 
	C 491.481,362.785, 521.285,119.707, 380.931-32.00z" />
<glyph unicode="&#xe047;" d="M 288.00,355.814L 288.00,480.00 l 192.00-192.00L 288.00,96.00L 288.00,222.912 C 64.625,228.153, 74.206,71.016, 131.07-32.00
	C-9.286,119.707, 20.52,362.785, 288.00,355.814z" />
<glyph unicode="&#xe048;" d="M 131.07,480.00C 74.206,376.984, 64.625,219.848, 288.00,225.088L 288.00,352.00 l 192.00-192.00L 288.00-32.00L 288.00,92.186 C 20.52,85.215-9.286,328.293, 131.07,480.00z" />
<glyph unicode="&#xe049;" d="M 224.00,92.186L 224.00-32.00 L 32.00,160.00l 192.00,192.00l0.00-126.912 C 447.375,219.848, 437.794,376.984, 380.931,480.00
	C 521.286,328.293, 491.481,85.215, 224.00,92.186z" />
<glyph unicode="&#xe04a;" d="M 429.406,480.00C 486.27,376.984, 511.375,219.848, 288.00,225.088L 288.00,352.00 L 96.00,160.00l 192.00-192.00L 288.00,92.186 C 512.00,92.186, 569.762,328.293, 429.406,480.00
		zM 192.00,306.745L 192.00,352.00L0.00,160.00L 192.00-32.00L 192.00,13.255L 45.255,160.00 	z" />
<glyph unicode="&#xe04b;" d="M 255.993,471.963C 114.606,471.963, 0.001,385.424, 0.001,278.684c0.00-83.391, 69.951-154.469, 167.963-181.565
	c 1.438-8.104, 3.25-19.646, 3.25-26.787c0.00-33.625-12.867-65.518-35.788-94.295c 35.444,14.928, 85.475,62.898, 116.473,109.432
	c 1.367-0.016, 2.729-0.084, 4.095-0.084c 141.40,0.00, 256.007,86.539, 256.007,193.299C 512.002,385.424, 397.395,471.963, 255.993,471.963z" />
<glyph unicode="&#xe04c;" d="M 512.00,176.00c0.00,31.984-26.282,59.581-64.259,72.383c-3.818-58.182-51.143-108.229-119.261-133.935
		c 12.653-7.509, 27.651-13.072, 44.103-16.029c 11.884-27.769, 30.681-54.436, 53.733-71.93c-12.468,24.473-13.195,48.944-8.824,70.484
		C 471.038,102.973, 512.00,136.068, 512.00,176.00zM 416.00,256.00c0.00,70.692-85.961,128.00-192.00,128.00C 117.962,384.00, 32.00,326.692, 32.00,256.00c0.00-52.637, 47.664-97.845, 115.781-117.509
		c 10.66-26.364, 16.668-61.164-1.062-95.967c 26.945,20.448, 48.081,53.424, 59.146,86.048C 211.837,128.199, 217.883,128.00, 224.00,128.00
		C 330.039,128.00, 416.00,185.308, 416.00,256.00z" />
<glyph unicode="&#xe04d;" d="M 464.00,480.00L 48.00,480.00 C 21.60,480.00,0.00,458.40,0.00,432.00l0.00-320.00 c0.00-26.40, 21.60-48.00, 48.00-48.00l 112.00,0.00 l 96.00-96.00l 96.00,96.00l 112.00,0.00 c 26.40,0.00, 48.00,21.60, 48.00,48.00L 512.00,432.00 
	C 512.00,458.40, 490.401,480.00, 464.00,480.00z" />
<glyph unicode="&#xe04e;" d="M 464.00,352.00L 176.00,352.00 c-26.40,0.00-48.00-21.60-48.00-48.00l0.00-224.00 c0.00-26.40, 21.60-48.00, 48.00-48.00l 80.00,0.00 l 64.00-64.00l 64.00,64.00l 80.00,0.00 c 26.40,0.00, 48.00,21.60, 48.00,48.00L 512.00,304.00 
		C 512.00,330.40, 490.401,352.00, 464.00,352.00zM 384.00,432.00c0.00,26.40-21.60,48.00-48.00,48.00L 48.00,480.00 C 21.60,480.00,0.00,458.40,0.00,432.00l0.00-224.00 c0.00-26.40, 21.60-48.00, 48.00-48.00l 16.00,0.00 L 64.00,368.00 c0.00,26.51, 21.49,48.00, 48.00,48.00l 272.00,0.00 L 384.00,432.00 z" />
<glyph unicode="&#xe04f;" d="M 480.00,416.00L 32.00,416.00 C 14.40,416.00,0.00,401.60,0.00,384.00l0.00-224.00 c0.00-17.60, 14.40-32.00, 32.00-32.00l 64.00,0.00 l0.00-96.00 l 72.00,96.00l 312.00,0.00 c 17.60,0.00, 32.00,14.40, 32.00,32.00L 512.00,384.00 
	C 512.00,401.60, 497.60,416.00, 480.00,416.00z" />
<glyph unicode="&#xe050;" d="M 480.00,416.00L 32.00,416.00 C 14.40,416.00,0.00,401.60,0.00,384.00l0.00-224.00 c0.00-17.60, 14.40-32.00, 32.00-32.00l 64.00,0.00 l0.00-96.00 l 72.00,96.00l 312.00,0.00 c 17.60,0.00, 32.00,14.40, 32.00,32.00L 512.00,384.00 
	C 512.00,401.60, 497.60,416.00, 480.00,416.00z M 160.00,224.00L 96.00,224.00 l0.00,64.00 l 64.00,0.00 L 160.00,224.00 z M 288.00,224.00l-64.00,0.00 l0.00,64.00 l 64.00,0.00 L 288.00,224.00 z M 416.00,224.00l-64.00,0.00 l0.00,64.00 l 64.00,0.00 L 416.00,224.00 z" />
<glyph unicode="&#xe051;" d="M 128.00,320.00A128.00,128.00 6300.00 1,0 384.00,320A128.00,128.00 6300.00 1,0 128.00,320zM 384.00,160.00L 128.00,160.00 C 57.308,160.00,0.00,102.691,0.00,32.00l0.00-32.00 l 4.033,0.00 l 503.934,0.00 L 512.00,0.00 l0.00,32.00 C 512.00,102.691, 454.692,160.00, 384.00,160.00z" />
<glyph unicode="&#xe052;" d="M 311.413,128.632c-11.055,1.759-11.307,32.157-11.307,32.157s 32.484,32.158, 39.564,75.401
	c 19.045,0.00, 30.809,45.973, 11.761,62.148C 352.226,315.365, 375.911,432.00, 256.00,432.00c-119.911,0.00-96.225-116.635-95.432-133.662
	c-19.047-16.175-7.285-62.148, 11.761-62.148c 7.079-43.243, 39.564-75.401, 39.564-75.401s-0.252-30.398-11.307-32.157
	C 164.976,122.966, 32.00,64.315, 32.00,0.00l 224.00,0.00 l 224.00,0.00 C 480.00,64.315, 347.024,122.966, 311.413,128.632z" />
<glyph unicode="&#xe053;" d="M 160.00,384.00A96.00,96.00 4500.00 1,0 352.00,384A96.00,96.00 4500.00 1,0 160.00,384zM 384.039,256.00l-0.078,0.00 l-17.634,0.00 l-99.552-202.122L 304.00,240.00l-48.00,48.00l-48.00-48.00l 37.225-186.122L 145.674,256.00l-17.635,0.00 l-0.077,0.00 
		C 64.00,256.00, 64.00,213.007, 64.00,160.00l0.00-160.00 l 384.00,0.00 L 448.00,160.00 C 448.00,213.007, 448.00,256.00, 384.039,256.00z" />
<glyph unicode="&#xe054;" d="M 364.496,224.00C 433.373,267.667, 480.00,351.604, 480.00,448.00c0.00,10.838-0.596,21.517-1.739,32.00L 33.74,480.00 C 32.595,469.516, 32.00,458.837, 32.00,448.00
		c0.00-96.396, 46.627-180.333, 115.503-224.00C 78.627,180.333, 32.00,96.396, 32.00,0.00c0.00-10.838, 0.595-21.517, 1.739-32.00l 444.521,0.00 
		c 1.144,10.483, 1.739,21.162, 1.739,32.00C 480.00,96.396, 433.373,180.333, 364.496,224.00z M 80.00,0.00c0.00,93.456, 40.081,172.707, 112.00,198.854
		l0.00,50.293 l0.00,0.00 C 120.081,275.292, 80.00,354.543, 80.00,448.00l0.00,0.00 l 352.00,0.00 l0.00,0.00 c0.00-93.457-40.081-172.708-112.00-198.853l0.00-50.293 
		C 391.919,172.707, 432.00,93.456, 432.00,0.00L 80.00,0.00 zM 309.813,145.203c-35.827,20.322-37.804,46.684-37.813,62.683L 272.00,240.00 c0.00,15.997, 1.902,42.457, 37.872,62.832
		c 19.252,11.182, 35.904,28.174, 48.524,49.168L 153.605,352.00 c 12.633-21.016, 29.306-38.021, 48.583-49.203
		c 35.827-20.322, 37.803-46.683, 37.813-62.683L 240.001,208.00 c0.00-15.996-1.902-42.457-37.872-62.832c-36.311-21.09-63.369-62.842-71.545-113.168
		l 250.835,0.00 C 373.237,82.354, 346.154,124.124, 309.813,145.203z" />
<glyph unicode="&#xe055;" d="M 192.00,416.00A64.00,64.00 6300.00 1,0 320.00,416A64.00,64.00 6300.00 1,0 192.00,416zM 327.765,359.765A64.00,64.00 6300.00 1,0 455.765,359.765A64.00,64.00 6300.00 1,0 327.765,359.765zM 416.00,224.00A32.00,32.00 6300.00 1,0 480.00,224A32.00,32.00 6300.00 1,0 416.00,224zM 359.765,88.235A32.00,32.00 6300.00 1,0 423.765,88.23500000000001A32.00,32.00 6300.00 1,0 359.765,88.23500000000001zM 224.001,32.00A32.00,32.00 6300.00 1,0 288.001,32A32.00,32.00 6300.00 1,0 224.001,32zM 88.236,88.235A32.00,32.00 6300.00 1,0 152.236,88.23500000000001A32.00,32.00 6300.00 1,0 88.236,88.23500000000001zM 72.236,359.765A48.00,48.00 6300.00 1,0 168.236,359.765A48.00,48.00 6300.00 1,0 72.236,359.765zM 28.00,224.00A36.00,36.00 6300.00 1,0 100.00,224A36.00,36.00 6300.00 1,0 28.00,224z" />
<glyph unicode="&#xe056;" d="M 512.00,224.00c-0.639,33.431-7.892,66.758-21.288,97.231c-13.352,30.50-32.731,58.129-56.521,80.96
	c-23.776,22.848-51.972,40.91-82.492,52.826C 321.197,466.979, 288.401,472.693, 256.00,472.00c-32.405-0.641-64.666-7.687-94.167-20.678
	c-29.524-12.948-56.271-31.735-78.367-54.788c-22.112-23.041-39.58-50.354-51.093-79.899C 20.816,287.104, 15.309,255.375, 16.00,224.00
	c 0.643-31.38, 7.482-62.574, 20.067-91.103c 12.544-28.55, 30.738-54.414, 53.055-75.774c 22.305-21.377, 48.736-38.252, 77.307-49.36
	C 194.988-3.389, 225.652-8.688, 256.00-8.00c 30.354,0.645, 60.481,7.277, 88.038,19.457c 27.575,12.141, 52.558,29.74, 73.183,51.322
	c 20.641,21.57, 36.922,47.118, 47.627,74.715c 6.517,16.729, 10.94,34.20, 13.271,51.899c 0.623-0.036, 1.249-0.06, 1.881-0.06
	c 17.673,0.00, 32.00,14.326, 32.00,32.00c0.00,0.898-0.047,1.786-0.119,2.666L 512.00,223.999 z M 461.153,139.026c-11.736-26.601-28.742-50.70-49.589-70.59
	c-20.835-19.905-45.50-35.593-72.122-45.895C 312.828,12.202, 284.297,7.315, 256.00,8.00c-28.302,0.649-56.298,6.868-81.91,18.237
	c-25.625,11.333-48.842,27.745-67.997,47.856c-19.169,20.099-34.264,43.882-44.161,69.529C 51.997,169.264, 47.318,196.729, 48.00,224.00
	c 0.651,27.276, 6.664,54.206, 17.627,78.845c 10.929,24.65, 26.749,46.985, 46.123,65.405c 19.365,18.434, 42.265,32.935, 66.937,42.428
	C 203.356,420.208, 229.755,424.681, 256.00,424.00c 26.25-0.653, 52.114-6.459, 75.781-17.017c 23.676-10.525, 45.128-25.751, 62.812-44.391
	c 17.698-18.629, 31.605-40.647, 40.695-64.344C 444.412,274.552, 448.679,249.219, 448.00,224.00l 0.119,0.00 c-0.072-0.88-0.119-1.768-0.119-2.666
	c0.00-16.506, 12.496-30.087, 28.543-31.812C 473.431,172.111, 468.278,155.113, 461.153,139.026z" />
<glyph unicode="&#xe057;" d="M 440.698,8.064L 313.486,194.95c-3.336,4.914-10.234,6.433-15.325,3.379l-16.069-9.668
		c-5.087-3.05-6.992-9.845-4.229-15.111l 105.281-200.064c 2.763-5.252, 9.177-7.056, 14.271-3.99l 40.101,24.093
		C 442.608-3.356, 444.033,3.149, 440.698,8.064zM 296.322,213.939c 48.104,30.646, 50.188,110.532, 4.747,181.875c-38.64,60.653-97.389,92.75-143.688,82.201
		c-10.647-2.086-24.247-7.761-37.93-16.475c-13.683-8.721-24.604-18.643-30.979-27.432C 59.346,396.604, 63.617,329.806, 102.25,269.17
		c 45.45-71.346, 118.727-103.23, 166.844-72.58l 27.22,17.346L 296.322,213.939z M 278.977,241.169
		c-31.746-20.215-87.728,8.487-122.253,62.704c-34.536,54.196-36.891,117.063-5.14,137.293c 31.722,20.217, 87.719-8.50, 122.243-62.708
		C 308.357,324.269, 310.704,261.392, 278.977,241.169z" />
<glyph unicode="&#xe058;" d="M 449.077,10.754l-114.54,168.305c 65.459,51.835, 83.963,145.677, 39.835,219.126
		C 326.445,477.959, 222.559,503.857, 142.793,455.94C 63.028,408.007, 37.131,304.124, 85.054,224.357
		c 43.213-71.942, 131.962-100.047, 207.479-69.717l 95.143-180.783c 2.95-5.611, 9.802-7.523, 15.229-4.273l 42.784,25.72
		C 451.126-1.433, 452.653,5.518, 449.077,10.754z M 288.781,212.968c-54.211-32.563-124.808-14.959-157.375,39.253
		c-32.565,54.197-14.952,124.794, 39.253,157.36c 54.189,32.57, 124.787,14.961, 157.351-39.245
		C 360.579,316.138, 342.978,245.525, 288.781,212.968z" />
<glyph unicode="&#xe059;" d="M 192.00,384.00L 160.00,384.00L 160.00,320.00L 96.00,320.00L 96.00,288.00L 160.00,288.00L 160.00,224.00L 192.00,224.00L 192.00,288.00L 256.00,288.00L 256.00,320.00L 192.00,320.00 	zM 318.771,201.076C 339.674,230.021, 352.00,265.568, 352.00,304.00C 352.00,401.202, 273.202,480.00, 176.00,480.00S0.00,401.202,0.00,304.00s 78.798-176.00, 176.00-176.00
		c 38.432,0.00, 73.979,12.326, 102.924,33.229L 448.00-32.00l 64.00,64.00L 318.771,201.076z M 176.00,176.00c-70.692,0.00-128.00,57.308-128.00,128.00S 105.308,432.00, 176.00,432.00
		s 128.00-57.308, 128.00-128.00S 246.693,176.00, 176.00,176.00z" />
<glyph unicode="&#xe05a;" d="M 96.00,320.00L 256.00,320.00L 256.00,288.00L 96.00,288.00zM 318.771,201.076C 339.674,230.021, 352.00,265.568, 352.00,304.00C 352.00,401.202, 273.202,480.00, 176.00,480.00S0.00,401.202,0.00,304.00s 78.798-176.00, 176.00-176.00
		c 38.432,0.00, 73.979,12.326, 102.924,33.229L 448.00-32.00l 64.00,64.00L 318.771,201.076z M 176.00,176.00c-70.692,0.00-128.00,57.308-128.00,128.00S 105.308,432.00, 176.00,432.00
		s 128.00-57.308, 128.00-128.00S 246.693,176.00, 176.00,176.00z" />
<glyph unicode="&#xe05b;" d="M 352.00,480.00c-88.365,0.00-160.00-71.634-160.00-160.00c0.00-10.013, 0.929-19.808, 2.688-29.312L0.00,96.00l0.00-96.00 c0.00-17.673, 14.327-32.00, 32.00-32.00
	l 32.00,0.00 l0.00,32.00 l 64.00,0.00 l0.00,64.00 l 64.00,0.00 l0.00,64.00 l 64.00,0.00 l 41.521,41.521C 314.526,163.363, 332.869,160.00, 352.00,160.00c 88.365,0.00, 160.00,71.634, 160.00,160.00S 440.365,480.00, 352.00,480.00z
	 M 399.937,319.937c-26.51,0.00-48.00,21.49-48.00,48.00s 21.49,48.00, 48.00,48.00s 48.00-21.49, 48.00-48.00S 426.447,319.937, 399.937,319.937z" />
<glyph unicode="&#xe05c;" d="M 501.066,322.879l-50.553,50.552c-12.396,12.397-32.685,32.684-45.081,45.082l-50.553,50.552
	c-12.396,12.397-34.477,14.583-49.065,4.858L 167.595,381.777c-14.588-9.726-20.109-30.514-12.268-46.195l 35.243-70.487
	c 1.077-2.153, 2.323-4.448, 3.695-6.83L 16.00,80.00L0.00-32.00l 96.00,0.00 l0.00,32.00 l 64.00,0.00 l0.00,64.00 l 64.00,0.00 l0.00,64.00l 64.00,0.00 l0.00,35.593 c 3.198-1.906, 6.267-3.608, 9.096-5.022
	l 70.485-35.244c 15.683-7.841, 36.47-2.319, 46.195,12.269l 92.147,138.22C 515.65,288.402, 513.462,310.481, 501.066,322.879z
	 M 75.314,52.687l-22.627,22.627l 155.786,155.785l 22.627-22.627L 75.314,52.687z M 458.51,268.118l-22.628-22.628
	c-6.223-6.222-16.404-6.222-22.627,0.00L 277.49,381.255c-6.223,6.222-6.223,16.405,0.00,22.627l 22.628,22.628
	c 6.223,6.222, 16.404,6.222, 22.627,0.00L 458.51,290.745C 464.733,284.523, 464.733,274.34, 458.51,268.118z" />
<glyph unicode="&#xe05d;" d="M 304.00,256.00l-16.00,0.00 l0.00,64.00 c0.00,70.692-57.308,128.00-128.00,128.00S 32.00,390.692, 32.00,320.00l0.00-64.00 L 16.00,256.00 c-8.80,0.00-16.00-7.20-16.00-16.00l0.00-224.00 c0.00-8.80, 7.20-16.00, 16.00-16.00l 288.00,0.00 
	c 8.80,0.00, 16.00,7.20, 16.00,16.00L 320.00,240.00 C 320.00,248.80, 312.80,256.00, 304.00,256.00z M 186.465,135.959L 192.00,64.00l-64.00,0.00 l 5.535,71.959
	C 120.561,144.551, 112.00,159.272, 112.00,176.00c0.00,26.51, 21.49,48.00, 48.00,48.00s 48.00-21.49, 48.00-48.00C 208.00,159.272, 199.439,144.551, 186.465,135.959z M 64.00,256.00
	l0.00,64.00 c0.00,53.02, 42.98,96.00, 96.00,96.00s 96.00-42.98, 96.00-96.00l0.00-64.00 L 64.00,256.00 z" />
<glyph unicode="&#xe05e;" d="M 384.00,448.00c-70.692,0.00-128.00-57.308-128.00-128.00l0.00-64.00 L 16.00,256.00 c-8.80,0.00-16.00-7.20-16.00-16.00l0.00-224.00 c0.00-8.80, 7.20-16.00, 16.00-16.00l 288.00,0.00 c 8.80,0.00, 16.00,7.20, 16.00,16.00L 320.00,240.00 
	c0.00,8.80-7.20,16.00-16.00,16.00l-16.00,0.00 l0.00,64.00 c0.00,53.02, 42.98,96.00, 96.00,96.00s 96.00-42.98, 96.00-96.00l0.00-64.00 l 32.00,0.00 l0.00,64.00 C 512.00,390.692, 454.693,448.00, 384.00,448.00z M 186.465,135.959
	L 192.00,64.00l-64.00,0.00 l 5.535,71.959C 120.561,144.551, 112.00,159.272, 112.00,176.00c0.00,26.51, 21.49,48.00, 48.00,48.00s 48.00-21.49, 48.00-48.00
	C 208.00,159.272, 199.439,144.551, 186.465,135.959z" />
<glyph unicode="&#xe05f;" d="M 507.882,411.883L 448.00,352.00l-64.00,64.00l 59.882,59.883C 435.057,478.557, 425.698,480.00, 416.00,480.00c-53.021,0.00-96.00-42.98-96.00-96.00
	c0.00-9.697, 1.442-19.057, 4.116-27.882L 123.882,155.883C 115.057,158.557, 105.698,160.00, 96.00,160.00c-53.021,0.00-96.00-42.98-96.00-96.00
	c0.00-9.697, 1.442-19.058, 4.117-27.882L 64.00,96.00l 64.00-64.00l-59.883-59.882C 76.943-30.556, 86.302-32.00, 96.00-32.00c 53.02,0.00, 96.00,42.981, 96.00,96.00
	c0.00,9.698-1.444,19.059-4.118,27.883l 200.234,200.235C 396.943,289.444, 406.302,288.00, 416.00,288.00c 53.02,0.00, 96.00,42.981, 96.00,96.00
	C 512.00,393.698, 510.556,403.058, 507.882,411.883z" />
<glyph unicode="&#xe060;" d="M 144.00,320.00L 80.00,320.00 c-8.80,0.00-16.00-7.20-16.00-16.00l0.00-32.00 c0.00-8.80, 7.20-16.00, 16.00-16.00l 64.00,0.00 c 8.80,0.00, 16.00,7.20, 16.00,16.00l0.00,32.00 C 160.00,312.80, 152.80,320.00, 144.00,320.00zM 96.00,416.00L 128.00,416.00L 128.00,336.00L 96.00,336.00zM 96.00,240.00L 128.00,240.00L 128.00,32.00L 96.00,32.00zM 272.00,192.00l-64.00,0.00 c-8.80,0.00-16.00-7.20-16.00-16.00l0.00-32.00 c0.00-8.80, 7.20-16.00, 16.00-16.00l 64.00,0.00 c 8.801,0.00, 16.00,7.20, 16.00,16.00l0.00,32.00 C 288.00,184.80, 280.801,192.00, 272.00,192.00zM 224.001,416.00L 256.001,416.00L 256.001,208.00L 224.001,208.00zM 224.001,112.00L 256.001,112.00L 256.001,32.00L 224.001,32.00zM 400.00,288.00l-64.00,0.00 c-8.799,0.00-16.00-7.20-16.00-16.00l0.00-32.00 c0.00-8.80, 7.201-16.00, 16.00-16.00l 64.00,0.00 c 8.801,0.00, 16.00,7.20, 16.00,16.00l0.00,32.00 C 416.00,280.80, 408.801,288.00, 400.00,288.00zM 352.00,416.00L 384.00,416.00L 384.00,304.00L 352.00,304.00zM 352.00,208.00L 384.00,208.00L 384.00,32.00L 352.00,32.00zM 440.00,480.00L 40.00,480.00 C 17.944,480.00,0.00,462.056,0.00,440.00l0.00-432.00 c0.00-22.056, 17.944-40.00, 40.00-40.00l 400.00,0.00 c 22.056,0.00, 40.00,17.944, 40.00,40.00L 480.00,440.00 
		C 480.00,462.056, 462.056,480.00, 440.00,480.00z M 448.00,8.00c0.00-4.40-3.60-8.00-8.00-8.00L 40.00,0.00 c-4.40,0.00-8.00,3.60-8.00,8.00L 32.00,440.00 c0.00,4.40, 3.60,8.00, 8.00,8.00l 400.00,0.00 c 4.40,0.00, 8.00-3.60, 8.00-8.00L 448.00,8.00 z" />
<glyph unicode="&#xe061;" d="M 466.895,174.875c-26.863,46.527-10.708,106.152, 36.076,133.244l-50.313,87.146c-14.375-8.427-31.088-13.259-48.923-13.259
	c-53.768,0.00-97.354,43.873-97.354,97.995L 205.752,480.001 c 0.133-16.705-4.037-33.641-12.979-49.126
	c-26.862-46.528-86.578-62.351-133.431-35.379L 9.03,308.35c 14.485-8.236, 27.025-20.294, 35.943-35.739
	c 26.819-46.454, 10.756-105.96-35.854-133.112l 50.313-87.146c 14.325,8.348, 30.958,13.127, 48.70,13.127
	c 53.598,0.00, 97.072-43.596, 97.35-97.479l 100.627,0.00 c-0.043,16.537, 4.136,33.285, 12.983,48.609
	c 26.818,46.453, 86.388,62.297, 133.207,35.506l 50.313,87.145C 488.222,147.494, 475.766,159.51, 466.895,174.875z M 256.00,120.334
	c-57.254,0.00-103.668,46.412-103.668,103.667c0.00,57.254, 46.413,103.667, 103.668,103.667c 57.254,0.00, 103.666-46.413, 103.666-103.667
	C 359.665,166.746, 313.254,120.334, 256.00,120.334z" />
<glyph unicode="&#xe062;" d="M 224.00,192.00L 224.00,416.00 C 100.288,416.00,0.00,315.712,0.00,192.00s 100.288-224.00, 224.00-224.00s 224.00,100.288, 224.00,224.00c0.00,36.017-8.514,70.042-23.618,100.191
		L 224.00,192.00zM 456.382,356.191C 419.606,429.599, 343.695,480.00, 256.00,480.00l0.00-224.00 L 456.382,356.191z" />
<glyph unicode="&#xe063;" d="M0.00,64.00L 512.00,64.00L 512.00,0.00L0.00,0.00zM 64.00,192.00L 128.00,192.00L 128.00,96.00L 64.00,96.00zM 160.00,320.00L 224.00,320.00L 224.00,96.00L 160.00,96.00zM 256.00,224.00L 320.00,224.00L 320.00,96.00L 256.00,96.00zM 352.00,416.00L 416.00,416.00L 416.00,96.00L 352.00,96.00z" />
<glyph unicode="&#xe064;" d="M 32.00,128.00L 96.00,128.00L 96.00-32.00L 32.00-32.00zM 160.00,192.00L 224.00,192.00L 224.00-32.00L 160.00-32.00zM 288.00,224.00L 352.00,224.00L 352.00-32.00L 288.00-32.00zM 416.00,320.00L 480.00,320.00L 480.00-32.00L 416.00-32.00zM 384.00,480.00L 416.00,448.00L 288.00,320.00L 224.00,384.00L 32.00,192.00L 64.00,160.00L 224.00,320.00L 288.00,256.00L 448.00,416.00L 480.00,384.00L 480.00,480.00 	z" />
<glyph unicode="&#xe065;" d="M 320.00,320.00l 96.00,64.00L 320.00,480.00l-60.00-140.00L 224.00,448.00l-96.00-64.00l 80.00-64.00L 32.00,320.00 l0.00-128.00 l 32.00,0.00 l0.00-224.00 l 384.00,0.00 L 448.00,192.00 l 32.00,0.00 L 480.00,320.00 L 320.00,320.00 z M 328.096,437.963l 50.233-50.233
	l-100.467-66.978L 328.096,437.963z M 211.168,410.601l 28.364-85.092l-70.91,56.728L 211.168,410.601z M 224.00,0.00L 96.00,0.00 L 96.00,208.00 l 128.00,0.00 L 224.00,0.00 z M 224.00,224.00
	L 64.00,224.00 l0.00,64.00 l 160.00,0.00 L 224.00,224.00 z M 416.00,0.00L 288.00,0.00 L 288.00,208.00 l 128.00,0.00 L 416.00,0.00 z M 448.00,224.00L 288.00,224.00 l0.00,64.00 l 160.00,0.00 L 448.00,224.00 z" />
<glyph unicode="&#xe066;" d="M 512.00,448.00c-32.00,0.00-160.00,0.00-160.00,0.00l0.00-64.00 L 160.00,384.00 L 160.00,448.00 c0.00,0.00-128.00,0.00-160.00,0.00c0.00-160.00, 128.00-347.188, 224.00-376.00l0.00-40.00 c-32.00,0.00-64.00-16.00-64.00-32.00l 192.00,0.00 c0.00,16.00-32.00,32.00-64.00,32.00
	l0.00,40.00 C 384.00,100.812, 512.00,288.00, 512.00,448.00z M 383.85,366.773L 384.00,384.00L 384.00,416.00 l 94.227,0.00 c-2.787-25.839-8.855-53.128-18.14-81.495
	c-12.272-37.499-30.058-75.91-51.433-111.082c-20.559-33.826-43.896-63.859-67.488-86.852c-2.266-2.208-4.521-4.336-6.765-6.391
	C 376.819,215.238, 382.961,321.678, 383.85,366.773z M 170.834,136.572c-23.593,22.992-46.93,53.025-67.488,86.852
	c-21.375,35.172-39.161,73.583-51.433,111.082C 42.629,362.872, 36.56,390.161, 33.773,416.00L 128.00,416.00 l0.00-32.00 l 0.15-17.227
	c 0.889-45.096, 7.031-151.535, 49.448-236.592C 175.355,132.236, 173.099,134.364, 170.834,136.572z" />
<glyph unicode="&#xe067;" d="M 64.00,416.00L0.00,352.00L 128.00,352.00 	zM 256.00,352.00L 192.00,416.00L 128.00,352.00 	zM 256.001,352.00L 384.00,352.00L 320.00,416.00 	zM 512.00,352.00L 448.00,416.00L 384.00,352.00 	zM 320.00,416.00L 448.00,416.00L 416.00,448.00L 96.00,448.00L 64.00,416.00L 192.00,416.00 	zM 256.00,0.00L 112.00,288.00L 198.40,288.00L 256.00,0.00L 313.60,288.00L 400.00,288.00L 256.00,0.00L 512.00,320.00L0.00,320.00 	z" />
<glyph unicode="&#xe068;" d="M 423.555,258.812c 0.033,2.533, 0.049,5.076, 0.049,7.626c0.00,30.532-93.227,55.284-208.225,55.284
		c-114.997,0.00-208.223-24.752-208.223-55.284C 7.156,101.615, 73.546-32.00, 215.379-32.00c 83.413,0.00, 140.723,46.225, 173.788,117.818
		c 3.338-0.27, 6.699-0.457, 10.119-0.457c 58.297,0.00, 105.559,39.356, 105.559,87.904C 504.844,214.857, 470.153,249.679, 423.555,258.812z
		 M 349.141,244.028c-36.689-8.652-84.195-13.417-133.762-13.417c-49.565,0.00-97.07,4.765-133.76,13.417
		c-35.822,8.448-50.376,18.136-54.252,22.411c 3.876,4.275, 18.431,13.961, 54.252,22.409c 36.688,8.653, 84.193,13.419, 133.76,13.419
		c 49.565,0.00, 97.071-4.767, 133.762-13.419c 35.822-8.448, 50.377-18.134, 54.254-22.409C 399.518,262.164, 384.963,252.477, 349.141,244.028
		z M 398.268,107.787c 12.537,33.865, 20.355,72.30, 23.60,113.514c 30.50-6.246, 48.42-28.615, 48.42-51.395
		C 470.285,140.523, 448.723,111.186, 398.268,107.787zM 255.689,353.922C 283.881,396.539, 206.377,442.352, 259.908,480.00c-44.528-2.943-52.161-30.188-40.935-51.461
		C 229.63,408.348, 255.649,394.268, 255.689,353.922zM 233.163,325.499c 12.646,35.708-59.269,64.515-19.554,105.806c-37.209-10.992-36.253-41.592-20.227-58.701
		C 204.951,360.25, 225.905,354.518, 233.163,325.499z" />
<glyph unicode="&#xe069;" d="M 352.00,448.00L 192.00,288.00L 96.00,288.00 L0.00,160.00c0.00,0.00, 101.708,28.326, 161.033,15.042L0.00-32.00l 210.951,164.072C 240.37,64.745, 192.00-32.00, 192.00-32.00l 128.00,96.00
	l0.00,96.00 l 160.00,160.00L 512.00,480.00L 352.00,448.00z" />
<glyph unicode="&#xe06a;" d="M 256.00,352.00C 114.615,352.00,0.00,237.386,0.00,96.00l 32.00,0.00 c0.00,58.209, 25.903,110.363, 66.811,145.574l 108.423-135.527
	c-0.665-3.245-1.014-6.604-1.014-10.047c0.00-27.492, 22.287-49.779, 49.779-49.779c 27.493,0.00, 49.779,22.287, 49.779,49.779
	s-22.286,49.781-49.779,49.781c-3.441,0.00-6.802-0.351-10.046-1.016L 111.979,251.947c 31.528,22.688, 70.213,36.054, 112.021,36.054
	c 106.038,0.00, 192.00-85.96, 192.00-191.999l 96.00,0.00 C 512.00,237.386, 397.385,352.00, 256.00,352.00z" />
<glyph unicode="&#xe06b;" d="M 256.00,352.00C 114.615,352.00,0.00,237.386,0.00,96.00l 32.00,0.00 c0.00,106.039, 85.961,192.00, 192.00,192.00c 7.167,0.00, 14.241-0.396, 21.205-1.16l-16.586-149.264
	c-13.494-8.904-22.399-24.199-22.399-41.576c0.00-27.492, 22.288-49.779, 49.78-49.779S 305.78,68.508, 305.78,96.00
	c0.00,17.377-8.904,32.672-22.398,41.576l-16.172,145.542C 352.44,263.517, 416.00,187.182, 416.00,96.00l 96.00,0.00 C 512.00,237.386, 397.385,352.00, 256.00,352.00z" />
<glyph unicode="&#xe06c;" d="M 416.00,96.00l 96.00,0.00 c0.00,141.386-114.615,256.00-256.00,256.00S0.00,237.386,0.00,96.00l 32.00,0.00 c0.00,106.039, 85.961,192.00, 192.00,192.00
	c 56.409,0.00, 107.136-24.326, 142.263-63.061l-100.217-80.174c-3.245,0.665-6.604,1.016-10.046,1.016
	c-27.493,0.00-49.78-22.289-49.78-49.781s 22.287-49.779, 49.78-49.779c 27.492,0.00, 49.778,22.287, 49.778,49.779
	c0.00,3.44-0.349,6.802-1.014,10.047l 78.166,97.707C 403.803,173.031, 416.00,135.941, 416.00,96.00z" />
<glyph unicode="&#xe06d;" d="M 256.00,480.00C 114.615,480.00,0.00,365.385,0.00,224.00s 114.615-256.00, 256.00-256.00s 256.00,114.615, 256.00,256.00S 397.385,480.00, 256.00,480.00z M 256.00,32.00
		c-106.039,0.00-192.00,85.961-192.00,192.00c0.00,106.039, 85.961,192.00, 192.00,192.00c 106.039,0.00, 192.00-85.961, 192.00-192.00C 448.00,117.961, 362.039,32.00, 256.00,32.00zM 224.00,352.00A32.00,32.00 4500.00 1,0 288.00,352A32.00,32.00 4500.00 1,0 224.00,352zM 320.00,320.00A32.00,32.00 4500.00 1,0 384.00,320A32.00,32.00 4500.00 1,0 320.00,320zM 128.00,320.00A32.00,32.00 4500.00 1,0 192.00,320A32.00,32.00 4500.00 1,0 128.00,320zM 224.00,128.00L 224.00,96.00L 288.00,96.00L 288.00,128.00L 256.00,288.00 	z" />
<glyph unicode="&#xe06e;" d="M 160.504-32.00C 51.878,29.221, 23.279,87.168, 39.63,166.311c 12.071,58.44, 56.647,105.986, 60.437,164.314
	c 16.884-30.726, 18.888-52.882, 20.775-84.99C 174.542,311.428, 230.231,399.478, 218.19,480.00c0.00,0.00, 133.808-64.00, 142.986-188.138
	c 12.041,25.587, 12.041,66.225,0.00,92.563c 36.122-26.339, 253.609-260.16-22.577-416.425c 51.926,101.105, 13.396,237.527-76.761,300.533
	c 6.021-27.092-1.505-97.832-41.391-142.232c 9.031,45.904-13.546,75.254-13.546,75.254s-7.402-41.555-36.122-83.533
	C 144.553,79.689, 126.381,39.004, 160.504-32.00z" />
<glyph unicode="&#xe06f;" d="M 478.145,77.759L 320.00,341.271L 320.00,448.00 l 16.00,0.00 c 8.80,0.00, 16.00,7.20, 16.00,16.00s-7.20,16.00-16.00,16.00L 176.00,480.00 c-8.80,0.00-16.00-7.20-16.00-16.00s 7.20-16.00, 16.00-16.00l 16.00,0.00 l0.00-106.729 
	L 33.856,77.759C-2.365,17.392, 25.60-32.00, 96.00-32.00l 320.00,0.00 C 486.40-32.00, 514.365,17.392, 478.145,77.759z M 120.519,160.00L 224.00,332.469L 224.00,448.00 l 64.00,0.00 
	l0.00-115.531 L 391.482,160.00L 120.519,160.00 z" />
<glyph unicode="&#xe070;" d="M 480.00,416.00L 320.00,416.00 L 320.00,464.00 c0.00,8.836-7.163,16.00-16.00,16.00l-96.00,0.00 c-8.836,0.00-16.00-7.164-16.00-16.00l0.00-48.00 L 32.00,416.00 L0.00,352.00l 64.00,0.00 l 32.00-384.00l 320.00,0.00 l 32.00,384.00l 64.00,0.00 L 480.00,416.00z M 224.00,32.00
	l-64.00,0.00 L 160.00,320.00 l 64.00,0.00 L 224.00,32.00 z M 224.00,448.00l 64.00,0.00 l0.00-32.00 l-64.00,0.00 L 224.00,448.00 z M 352.00,32.00l-64.00,0.00 L 288.00,320.00 l 64.00,0.00 L 352.00,32.00 z" />
<glyph unicode="&#xe071;" d="M 96.00-32.00L 416.00-32.00L 448.00,320.00L 64.00,320.00 	zM 320.00,416.00L 320.00,480.00 L 192.00,480.00 l0.00-64.00 L 32.00,416.00 l0.00-96.00 l 32.00,32.00l 384.00,0.00 l 32.00-32.00L 480.00,416.00 L 320.00,416.00 z M 288.00,416.00l-64.00,0.00 L 224.00,448.00 l 64.00,0.00 L 288.00,416.00 z" />
</font>
</defs>
</svg>
